<?xml version="1.0" encoding="UTF-8"?>
<svg id="Layer_2" data-name="Layer 2" xmlns="http://www.w3.org/2000/svg" xmlns:xlink="http://www.w3.org/1999/xlink" viewBox="0 0 176.07 143.71">
  <defs>
    <style>
      .cls-1 {
        fill: url(#New_Gradient_Swatch_8);
      }

      .cls-2 {
        fill: url(#linear-gradient-2);
      }

      .cls-3 {
        fill: #ffc172;
      }

      .cls-4 {
        fill: url(#New_Gradient_Swatch_6);
      }

      .cls-5 {
        fill: #eaad8f;
      }

      .cls-6 {
        fill: url(#linear-gradient-15);
      }

      .cls-7 {
        fill: #636bec;
      }

      .cls-8 {
        fill: url(#linear-gradient-14);
      }

      .cls-9 {
        fill: #d9e9f6;
      }

      .cls-10 {
        fill: #3b297c;
      }

      .cls-11 {
        fill: url(#linear-gradient-6);
      }

      .cls-12 {
        fill: url(#New_Gradient_Swatch_6-2);
      }

      .cls-13 {
        fill: #f0c6ae;
      }

      .cls-14 {
        fill: #565588;
      }

      .cls-15 {
        fill: url(#linear-gradient-11);
      }

      .cls-16 {
        fill: #d88e3f;
      }

      .cls-17 {
        fill: url(#linear-gradient-10);
      }

      .cls-18 {
        fill: url(#New_Gradient_Swatch_6-3);
      }

      .cls-19 {
        fill: url(#linear-gradient-16);
      }

      .cls-20 {
        fill: url(#New_Gradient_Swatch_4);
      }

      .cls-21 {
        fill: #351f72;
      }

      .cls-22 {
        fill: url(#linear-gradient-5);
      }

      .cls-23 {
        fill: url(#New_Gradient_Swatch_10);
      }

      .cls-24 {
        fill: url(#linear-gradient-7);
      }

      .cls-25 {
        fill: url(#linear-gradient-9);
      }

      .cls-26 {
        fill: url(#linear-gradient-3);
      }

      .cls-27 {
        fill: url(#linear-gradient);
      }

      .cls-28 {
        fill: url(#linear-gradient-4);
      }

      .cls-29 {
        fill: url(#linear-gradient-8);
      }

      .cls-30 {
        fill: url(#linear-gradient-12);
      }

      .cls-31 {
        fill: url(#linear-gradient-13);
      }

      .cls-32 {
        fill: #32186a;
      }
    </style>
    <linearGradient id="New_Gradient_Swatch_10" data-name="New Gradient Swatch 10" x1="-669.92" y1="15.38" x2="-669.92" y2="131.9" gradientTransform="translate(-579.64) rotate(-180) scale(1 -1)" gradientUnits="userSpaceOnUse">
      <stop offset="0" stop-color="#efcf64"/>
      <stop offset=".37" stop-color="#e38378"/>
      <stop offset="1" stop-color="#4136eb"/>
    </linearGradient>
    <linearGradient id="New_Gradient_Swatch_8" data-name="New Gradient Swatch 8" x1="85.35" y1="84.41" x2="85.35" y2="136.88" gradientUnits="userSpaceOnUse">
      <stop offset="0" stop-color="#4d5dec"/>
      <stop offset=".33" stop-color="#4136eb"/>
      <stop offset="1" stop-color="#420087"/>
    </linearGradient>
    <linearGradient id="linear-gradient" x1="22.53" y1="179.15" x2="22.53" y2="232.6" gradientTransform="translate(-42.52 -85.99) rotate(-14.53)" gradientUnits="userSpaceOnUse">
      <stop offset="0" stop-color="#9398fb"/>
      <stop offset="1" stop-color="#8c00f9"/>
    </linearGradient>
    <linearGradient id="linear-gradient-2" x1="42.73" y1="108.68" x2="42.73" y2="137.58" gradientUnits="userSpaceOnUse">
      <stop offset="0" stop-color="#9776f0"/>
      <stop offset=".24" stop-color="#8a69f2"/>
      <stop offset=".68" stop-color="#694af9"/>
      <stop offset="1" stop-color="#4d2fff"/>
    </linearGradient>
    <linearGradient id="linear-gradient-3" x1="42.22" y1="115.38" x2="42.22" y2="137.58" gradientUnits="userSpaceOnUse">
      <stop offset="0" stop-color="#84acf8"/>
      <stop offset=".94" stop-color="#9579f0"/>
      <stop offset="1" stop-color="#9776f0"/>
    </linearGradient>
    <linearGradient id="linear-gradient-4" x1="138.82" y1="48.35" x2="138.82" xlink:href="#linear-gradient-2"/>
    <linearGradient id="linear-gradient-5" x1="140.4" y1="63.13" x2="140.4" xlink:href="#linear-gradient-3"/>
    <linearGradient id="linear-gradient-6" x1="122.92" y1="67.83" x2="122.92" xlink:href="#linear-gradient-2"/>
    <linearGradient id="linear-gradient-7" x1="121.68" y1="79.38" x2="121.68" xlink:href="#linear-gradient-3"/>
    <linearGradient id="linear-gradient-8" x1="113.18" y1="112.07" x2="113.18" xlink:href="#linear-gradient-3"/>
    <linearGradient id="linear-gradient-9" x1="60.09" y1="92.05" x2="60.09" xlink:href="#linear-gradient-2"/>
    <linearGradient id="linear-gradient-10" x1="59.29" y1="99.59" x2="59.29" xlink:href="#linear-gradient-3"/>
    <linearGradient id="linear-gradient-11" x1="48.44" y1="93.26" x2="48.44" xlink:href="#linear-gradient-2"/>
    <linearGradient id="linear-gradient-12" x1="48.17" y1="101.65" x2="48.17" xlink:href="#linear-gradient-3"/>
    <linearGradient id="linear-gradient-13" x1="-561.31" y1="110.91" x2="-561.31" y2="137.58" gradientTransform="translate(-404.09) rotate(-180) scale(1 -1)" xlink:href="#linear-gradient-2"/>
    <linearGradient id="linear-gradient-14" x1="-561.78" y1="117.09" x2="-561.78" y2="137.58" gradientTransform="translate(-404.09) rotate(-180) scale(1 -1)" xlink:href="#linear-gradient-3"/>
    <linearGradient id="linear-gradient-15" x1="-556.04" y1="96.68" x2="-556.04" y2="137.58" gradientTransform="translate(-404.09) rotate(-180) scale(1 -1)" xlink:href="#linear-gradient-2"/>
    <linearGradient id="linear-gradient-16" x1="-556.29" y1="104.42" x2="-556.29" y2="137.58" gradientTransform="translate(-404.09) rotate(-180) scale(1 -1)" xlink:href="#linear-gradient-3"/>
    <linearGradient id="New_Gradient_Swatch_6" data-name="New Gradient Swatch 6" x1="75.91" y1="81.27" x2="82.99" y2="81.27" gradientUnits="userSpaceOnUse">
      <stop offset="0" stop-color="#df697b"/>
      <stop offset="1" stop-color="#be2773"/>
    </linearGradient>
    <linearGradient id="New_Gradient_Swatch_6-2" data-name="New Gradient Swatch 6" x1="86.29" y1="110.33" x2="104.76" y2="110.33" xlink:href="#New_Gradient_Swatch_6"/>
    <linearGradient id="New_Gradient_Swatch_6-3" data-name="New Gradient Swatch 6" x1="72.66" y1="79.45" x2="98.71" y2="124.58" xlink:href="#New_Gradient_Swatch_6"/>
    <linearGradient id="New_Gradient_Swatch_4" data-name="New Gradient Swatch 4" x1="71.71" y1="37.9" x2="89.78" y2="69.19" gradientUnits="userSpaceOnUse">
      <stop offset="0" stop-color="#68acff"/>
      <stop offset=".23" stop-color="#64a7ff"/>
      <stop offset=".5" stop-color="#5a98ff"/>
      <stop offset=".79" stop-color="#4a81ff"/>
      <stop offset="1" stop-color="#3b6bff"/>
    </linearGradient>
  </defs>
  <g id="OBJECTS">
    <g>
      <g>
        <circle class="cls-9" cx="111" cy="69.56" r="65.07"/>
        <circle class="cls-9" cx="56.11" cy="85.74" r="56.11" transform="translate(-29.37 29.24) rotate(-23.34)"/>
        <circle class="cls-9" cx="43.03" cy="42.65" r="31.17"/>
        <circle class="cls-9" cx="65.84" cy="17.36" r="8.98" transform="translate(38.14 79.56) rotate(-80.76)"/>
        <path class="cls-9" d="m81.24,4.49c0,2.48-2.01,4.49-4.49,4.49s-4.49-2.01-4.49-4.49,2.01-4.49,4.49-4.49,4.49,2.01,4.49,4.49Z"/>
      </g>
      <path class="cls-23" d="m29.79,108.68c12.17,15.37,26.31,29.69,46.67,32.39,12.25,1.62,24.65-.94,37.01-.81,13.41.14,32.09,4.59,41.26-7.89,4.38-5.97,8.41-12.33,10.64-19.4,5.42-17.2-.53-34.74-4.56-51.51-2.19-9.11-7.71-18.71-16.75-22.32-20-8-43,6-61.48-5.53-8.34-3.98-17.68-7.12-26.9-8.21-6.68-.79-13.7-.12-19.6,3.11-6.07,3.33-10.44,9.07-13.91,15.06-5.76,9.95-9.92,21.52-8.98,33.19.91,11.26,7.14,19.73,13.75,28.28.94,1.22,1.89,2.44,2.85,3.65Z"/>
      <path class="cls-1" d="m67.73,125.1c-1.42-.98-3.04-1.65-4.69-1.85,3.18,1.07,5.44,3.69,6.66,6.51.96,2.24,1.36,4.66,1.49,7.12h14.63c.13-3.25,1.23-6.56,3.05-9.49,2.29-3.69,5.65-6.86,9.72-8.84-4.32,1.38-8.27,4.09-11.3,7.69-1.38,1.65-2.57,3.52-3.48,5.55,3.14-14.45,11.61-27.97,23.85-36.99-12.56,7.96-22.18,20.69-26.68,35.23.37-4.38,1.07-8.75,2.12-13.04,2.08-8.39,5.51-16.61,11.02-23.47-6.01,6.44-10.15,14.52-12.9,22.94-1.03,3.18-1.87,6.42-2.53,9.71.06-5.44.27-10.94.11-16.45-.13-4.36-.51-8.74-1.37-13.02-.86-4.28-2.23-8.46-4.28-12.28,1.76,3.96,2.79,8.18,3.32,12.44.53,4.26.58,8.56.38,12.84-.25,5.41-.87,10.81-1.34,16.28-2.76-10.49-6.97-20.53-12.47-29.73,5.82,11.89,9.48,24.72,10.87,37.69-.62-1.8-1.42-3.55-2.51-5.13-1.01-1.46-2.25-2.73-3.67-3.71Z"/>
      <g>
        <path class="cls-27" d="m36.73,104.17c1.54-1.57,2.91-3.37,3.88-5.36-2.14.39-4.1,1.5-5.66,2.99-1.72,1.65-2.98,3.77-3.53,6.09,2.04-.77,3.8-2.18,5.31-3.73Zm4.88,27.46c1.53-1.58,2.54-3.63,3.26-5.69.73-2.09,1.23-4.32,1.28-6.55-1.79,1.26-3.12,3.1-3.91,5.13-.88,2.25-1.12,4.74-.62,7.11Zm-16.16-22.35c-1.85-1.26-4.06-2.31-6.36-2.51,1.51,2.48,3.16,4.34,5.51,5.88,1.83,1.2,4.23,1.89,6.51,1.66-1.63-1.99-3.59-3.61-5.67-5.03Zm12.73,17.26c1.67-1.4,2.88-3.32,3.79-5.27.93-1.99,1.65-4.13,1.92-6.33-1.89,1.06-3.39,2.75-4.37,4.67-1.09,2.12-1.59,4.55-1.34,6.93Zm3.1-22.78c-2.1.6-3.96,1.9-5.38,3.55-1.56,1.82-2.61,4.07-2.93,6.45,1.97-.98,3.59-2.57,4.95-4.27,1.38-1.73,2.58-3.65,3.35-5.73Zm-13.69,13.86c-1.99-1.01-4.33-1.76-6.63-1.65,1.82,2.26,3.7,3.89,6.23,5.11,1.97.95,4.44,1.32,6.68.8-1.88-1.77-4.03-3.11-6.28-4.25Zm14.98-7.53c-2.01.87-3.68,2.4-4.87,4.22-1.31,2.01-2.06,4.38-2.06,6.78,1.82-1.23,3.23-3.03,4.35-4.89,1.14-1.89,2.08-3.96,2.58-6.12Zm-17.81-7.42c-1.69-1.43-3.78-2.68-6.02-3.1,1.05,2.62,2.76,4.65,4.85,6.34,1.69,1.37,3.99,2.28,6.26,2.28-1.41-2.13-3.17-3.91-5.08-5.52Zm1.19-5.73c-1.22-1.45-2.58-2.97-4.37-3.84.44,2.24,1.45,4.5,2.91,6.1,1.25,1.37,2.74,2.75,4.69,3.25-.78-1.99-1.89-3.92-3.23-5.51Zm4.17,30.26c2.04.74,4.52.87,6.67.13-2.03-1.56-4.28-2.67-6.61-3.57-2.07-.8-4.44-1.3-6.7-.96,1.85,2.12,4.13,3.49,6.65,4.4Zm.44-24.87c1.72-.78,3.14-2.14,4.29-3.45,1.2-1.37,2.35-3.01,3.06-4.82-1.87.43-3.45,1.66-4.58,2.9-1.27,1.39-2.39,3.28-2.77,5.37Zm2.43,27.47c-2.16-.6-4.6-.87-6.84-.3,2.25,1.86,4.42,3.09,7.15,3.79,2.13.55,4.63.43,6.72-.53-2.2-1.37-4.59-2.27-7.04-2.95Zm-2.91-34.13c1.19-.39,2.5-1.26,3.75-2.46,1.25-1.2,2.22-2.53,2.84-3.78-1.22.21-2.63.92-3.91,2.08-1.14,1.03-2.23,2.66-2.68,4.16Zm-.43-9.97c-.39,2.06-.39,4.25.15,6.27.01.05.03.1.04.15.02-.05.05-.09.07-.14.87-1.86,1.4-3.91,1.81-5.89.43-2.05.61-4.25.47-6.38-1.32,1.75-2.14,3.85-2.54,5.99Zm-3.92,6.95c1.06,1.52,2.33,2.55,3.49,3-.41-1.61-1.23-3.33-2.14-4.69-1.02-1.53-2.15-2.74-3.25-3.37.15,1.7.93,3.69,1.9,5.07Z"/>
        <path class="cls-14" d="m31.1,114.39c-.08-.02-.16-.04-.25-.06h0s0,0,0,0c-.26-.06-.53-.12-.79-.2-.69-.19-1.38-.45-2.06-.75-.68-.3-1.35-.67-2-1.09-.65-.42-1.29-.9-1.89-1.48.61.55,1.26,1,1.91,1.39.65.39,1.33.73,2.01,1,.67.27,1.38.49,2.05.66.27.07.54.12.81.17.07.01.14.03.21.04.21.04.44.07.66.1-.5-1.9-.92-3.77-1.3-5.69-.27-.08-.55-.16-.82-.25-.04-.01-.07-.03-.11-.04h0c-.3-.11-.6-.21-.89-.34-.67-.27-1.33-.6-1.97-.97-.64-.37-1.28-.8-1.88-1.29-.61-.49-1.2-1.03-1.73-1.67.55.61,1.15,1.12,1.76,1.58.61.46,1.25.86,1.89,1.2.64.34,1.32.63,1.97.88.32.12.64.22.97.32h.03c.24.08.47.14.71.2-.31-1.74-.53-3.53-.67-5.3-.22-.12-.44-.25-.66-.39h0c-.26-.16-.51-.33-.76-.51-.49-.35-.98-.74-1.44-1.16-.47-.42-.91-.88-1.34-1.37-.43-.49-.83-1.02-1.2-1.6.38.56.81,1.06,1.24,1.52.44.46.9.9,1.37,1.29.47.39.97.76,1.46,1.08.2.13.41.26.61.38.22.13.45.25.68.37-.17-2.2-.22-4.41-.14-6.62-.12-.1-.24-.2-.36-.31-.6-.53-1.17-1.13-1.7-1.79-.64-.81-1.7-2.72-1.7-2.72,0,0,1.1,1.86,1.75,2.65.49.59,1.02,1.12,1.57,1.59.15.13.3.25.45.37.05-1.44.1-2.17.24-3.61.13-1.37.22-2.05.43-3.42-.08.57-.11.86-.17,1.44.07-.57.12-.86.2-1.43-.18,1.37-.25,2.05-.35,3.42-.11,1.44-.14,2.17-.16,3.61.16-.11.32-.23.47-.34.58-.43,1.15-.89,1.7-1.38.73-.66,2.11-2.11,2.11-2.11,0,0-1.35,1.49-2.07,2.18-.59.56-1.21,1.09-1.83,1.57-.13.1-.25.19-.38.29-.02,2.2.07,4.4.29,6.59.2-.15.41-.31.61-.47.18-.15.37-.3.55-.45.44-.37.88-.77,1.31-1.18.43-.4.85-.83,1.26-1.26.41-.43.81-.88,1.18-1.35-.36.49-.74.96-1.13,1.41-.39.45-.8.9-1.21,1.33-.42.43-.85.85-1.28,1.26-.22.2-.44.41-.67.6h0c-.19.17-.38.33-.58.5.18,1.75.44,3.52.79,5.24.2-.14.4-.28.6-.42l.03-.02c.27-.21.55-.4.81-.61.54-.43,1.09-.88,1.61-1.35.52-.47,1.03-.96,1.52-1.48.49-.51.97-1.04,1.4-1.61-.41.59-.87,1.14-1.35,1.68-.47.53-.97,1.06-1.48,1.55-.51.49-1.03.98-1.58,1.43-.23.21-.48.4-.72.6h0s-.06.05-.09.08c-.22.18-.45.35-.67.52.42,1.9.88,3.74,1.42,5.61.17-.14.34-.28.5-.43.05-.05.11-.1.16-.14.2-.18.41-.37.61-.55.49-.47,1-.98,1.47-1.5.47-.51.93-1.06,1.36-1.62.43-.56.85-1.14,1.22-1.75-.35.63-.75,1.23-1.16,1.81-.41.58-.85,1.15-1.31,1.69-.45.54-.93,1.08-1.42,1.58-.18.2-.38.38-.57.57h0s0,0,0,0c-.06.06-.12.12-.18.18-.18.18-.37.35-.56.52.79,2.47,1.69,4.86,2.71,7.24.1-.16.21-.31.31-.47.13-.2.25-.4.37-.61.3-.5.58-1.02.86-1.54.28-.52.53-1.06.78-1.6.24-.54.48-1.09.68-1.66-.18.58-.39,1.14-.61,1.7-.22.56-.46,1.11-.71,1.65-.25.54-.52,1.08-.8,1.6-.14.26-.29.53-.43.79h0c-.09.16-.19.32-.28.48.73,1.62,1.56,3.23,2.45,4.78.12-.16.23-.32.35-.48l.02-.03c.19-.28.38-.56.56-.84.37-.58.74-1.2,1.08-1.81.34-.61.66-1.25.95-1.9.29-.65.57-1.3.79-1.98-.2.69-.45,1.37-.72,2.03-.27.66-.57,1.32-.89,1.95-.32.63-.66,1.27-1.02,1.88-.15.28-.32.54-.49.81h0s-.04.07-.06.1c-.13.2-.26.4-.39.6,1.02,1.69,2.06,3.31,3.18,4.93.1-.16.2-.33.29-.49.03-.06.07-.13.1-.19.13-.24.27-.48.39-.73.31-.61.62-1.26.89-1.91.27-.64.52-1.32.75-1.99.22-.67.43-1.36.57-2.06-.12.71-.3,1.41-.5,2.1-.2.69-.42,1.37-.68,2.04-.25.66-.52,1.33-.82,1.97-.11.25-.23.49-.35.73h0s0,0,0,0c-.04.07-.07.15-.11.23-.1.2-.21.4-.32.6,2.24,2.98,4.65,5.72,7.31,8.33-.25.26-.37.39-.61.64-2.68-2.67-5.09-5.47-7.35-8.51-.22.04-.45.07-.68.1-.09,0-.17.01-.25.03h0s0,0,0,0c-.27.03-.54.06-.81.06-.72.05-1.46.02-2.2-.05-.74-.07-1.5-.2-2.26-.39-.76-.19-1.52-.44-2.28-.8.76.33,1.52.55,2.27.71.75.16,1.5.26,2.23.3.72.04,1.47.02,2.16-.04.28-.02.56-.06.83-.1.07-.01.14-.02.22-.03.19-.03.38-.07.56-.1-1.12-1.65-2.17-3.3-3.18-5.02-.24.01-.47.02-.71.02-.04,0-.08,0-.12,0h0c-.32,0-.63,0-.95-.03-.72-.04-1.46-.13-2.18-.28-.73-.14-1.47-.35-2.2-.61-.73-.26-1.47-.58-2.18-1.01.72.4,1.45.69,2.18.92.73.23,1.47.41,2.18.52.72.11,1.45.17,2.15.19.34.01.68,0,1.02,0h.03c.2,0,.4-.03.59-.04-.89-1.57-1.71-3.21-2.44-4.85-.18-.04-.36-.07-.54-.11h0c-.29-.07-.59-.15-.88-.23-.58-.17-1.16-.38-1.74-.62-.58-.24-1.15-.53-1.71-.85-.56-.32-1.12-.68-1.65-1.11.54.4,1.1.73,1.67,1.02.56.29,1.14.55,1.71.76.58.21,1.16.4,1.73.54.23.06.47.11.7.16.19.03.37.06.56.09-1.01-2.42-1.9-4.84-2.68-7.34-.25-.04-.51-.08-.76-.14Z"/>
      </g>
      <g>
        <g>
          <path class="cls-2" d="m35.43,108.7c-1.47.51.2,10.13,5,28.88h5.19c-2.63-7.23-5.1-14.53-7.45-21.86-.13-.4.11-.47.26-.09,2.78,7.26,5.4,14.58,7.87,21.95h4.24c-8.53-19.79-13.56-29.41-15.11-28.88Z"/>
          <path class="cls-26" d="m38.43,115.63c-.15-.38-.38-.31-.26.09,2.35,7.33,4.82,14.63,7.45,21.86h.68c-2.46-7.37-5.09-14.69-7.87-21.95Z"/>
        </g>
        <g>
          <path class="cls-28" d="m147.96,137.58h-8.28l.07-3.08.15-5.42c.22-7.23.44-14.46.67-21.69.45-14.46.91-28.93,1.36-43.4.04-1.15-.34-1.14-.41-.02-.87,14.44-1.56,28.9-2.04,43.37-.24,7.24-.41,14.47-.51,21.71l-.05,5.43v3.1h-9.22c5.95-66.15,9.92-89.34,12.62-89.23,2.68.1,4.84,23.36,5.66,89.23Z"/>
          <path class="cls-22" d="m141.5,63.97c.07-1.12.44-1.13.41.02-.45,14.46-.91,28.93-1.36,43.4-.22,7.23-.44,14.46-.67,21.69l-.15,5.42-.07,3.08h-.78v-3.1s.05-5.43.05-5.43c.1-7.24.27-14.47.51-21.71.48-14.47,1.17-28.93,2.04-43.37Z"/>
        </g>
        <g>
          <path class="cls-11" d="m115.78,137.58h6.48l-.05-2.41-.11-4.24c-.17-5.65-.35-11.3-.52-16.95-.35-11.31-.71-22.62-1.06-33.92-.03-.9.27-.89.32-.02.68,11.29,1.22,22.59,1.6,33.9.19,5.66.32,11.31.4,16.97l.04,4.24v2.42h7.2c-4.65-51.71-7.76-69.84-9.86-69.76-2.1.08-3.78,18.26-4.42,69.76Z"/>
          <path class="cls-24" d="m120.82,80.04c-.05-.87-.35-.89-.32.02.35,11.31.71,22.62,1.06,33.92.17,5.65.35,11.3.52,16.95l.11,4.24.05,2.41h.61v-2.42s-.04-4.24-.04-4.24c-.08-5.66-.21-11.32-.4-16.97-.37-11.31-.91-22.62-1.6-33.9Z"/>
        </g>
        <path class="cls-29" d="m129.95,137.21c3.61-2.2,5.22-5.54,4.43-7.2-.86-1.81-5.09-2.77-9.6-.37.15-.68,2.36-11.09,0-12.01-1.89-.74-5.79,4.99-6.65,6.28.87-7.52.68-11.46-.55-11.82-.91-.27-2.39,1.39-4.43,4.99-.74-2.59-1.48-3.88-2.22-3.88-1.44,0-2.85,4.99-4.25,14.96-.69-3.64-2.14-10.14-4.06-10.16-2.4-.03-4.27,10.07-4.8,13.11-3.12-3.29-5.02-4.7-5.73-4.25-.89.57.16,4.14,3.14,10.71,11.57-.12,23.15-.25,34.72-.37Z"/>
        <g>
          <path class="cls-25" d="m55.43,137.58h4.23l-.04-1.57-.07-2.77c-.11-3.69-.23-7.38-.34-11.07-.23-7.38-.46-14.76-.69-22.14-.02-.59.17-.58.21-.01.45,7.37.8,14.75,1.04,22.13.12,3.69.21,7.38.26,11.08l.03,2.77v1.58h4.7c-3.04-33.75-5.06-45.58-6.44-45.53-1.37.05-2.47,11.92-2.89,45.53Z"/>
          <path class="cls-17" d="m58.72,100.02c-.03-.57-.23-.58-.21.01.23,7.38.46,14.76.69,22.14.11,3.69.23,7.38.34,11.07l.07,2.77.04,1.57h.4v-1.58s-.03-2.77-.03-2.77c-.05-3.69-.14-7.39-.26-11.08-.24-7.38-.6-14.76-1.04-22.13Z"/>
        </g>
        <g>
          <path class="cls-15" d="m39.31,93.27c-1.32.42,1.92,15.19,9.72,44.31h4.7c-4.07-11.75-7.93-23.59-11.67-35.46-.19-.59.06-.65.26-.09,4.19,11.78,8.2,23.63,12.02,35.54h3.53c-11.02-29.97-17.2-44.74-18.56-44.31Z"/>
          <path class="cls-30" d="m42.32,102.04c-.2-.57-.44-.51-.26.09,3.73,11.87,7.6,23.7,11.67,35.46h.61c-3.81-11.91-7.83-23.77-12.02-35.54Z"/>
        </g>
        <g>
          <path class="cls-31" d="m163.95,110.93c1.35.47-.19,9.35-4.62,26.65h-4.79c2.43-6.68,4.7-13.41,6.87-20.17.12-.37-.1-.43-.24-.08-2.56,6.7-4.99,13.45-7.26,20.26h-3.92c7.87-18.26,12.52-27.15,13.95-26.65Z"/>
          <path class="cls-8" d="m161.18,117.33c.13-.35.35-.29.24.08-2.17,6.77-4.45,13.5-6.87,20.17h-.62c2.27-6.8,4.7-13.56,7.26-20.26Z"/>
        </g>
        <g>
          <path class="cls-6" d="m160.38,96.69c1.22.39-1.77,14.02-8.97,40.9h-4.34c3.75-10.85,7.32-21.77,10.77-32.72.17-.55-.05-.6-.24-.08-3.86,10.87-7.57,21.81-11.09,32.8h-3.26c10.17-27.66,15.88-41.29,17.13-40.9Z"/>
          <path class="cls-19" d="m157.6,104.78c.19-.52.41-.47.24.08-3.44,10.96-7.01,21.88-10.77,32.72h-.56c3.52-10.99,7.23-21.93,11.09-32.8Z"/>
        </g>
      </g>
      <g>
        <g>
          <path class="cls-32" d="m86.94,131.38c.28,3.08.5,5.18.5,5.18,0,0-13.62,1.94-13.82.46-.2-1.47,5.01-5.01,5.01-5.01,0,0,6.38.18,8.31-.64Z"/>
          <path class="cls-32" d="m104.76,124.62l1.96,5.54s-10.57,5.21-11.97,3.44c-1.4-1.74,2.56-5.74,2.56-5.74h0s5.71-1.33,7.45-3.24Z"/>
          <path class="cls-13" d="m79.4,28.35c.36-.55.4-2.09.96-2.37.58-.3,1.22.4,1.57.75.22.23.45.51.58.8.3.67.26,1.5.31,2.22.05.66,0,1.3.26,1.89.16.37.26.71.33,1.11.02.1.18.64.12.72-2.22,2.79-5.81.97-5.81.97-.08-.39.04-1.39-.1-1.87-.02-.1-.13-.23-.13-.23,0,0-2.3.74-3.1.2s-1.74-5.84-1.74-5.84l-.1-.22c.12-.05.23-.12.34-.21.6-.5.92-.94.92-.94,0,0,.85.37,1.37.3.51-.07,1.35-.54,1.35-.54,0,0,.89.78,1.84,1.02,0,0,.33,2.42.71,2.45.14.01.24-.06.33-.2Z"/>
          <path class="cls-13" d="m74.69,63.51c.05.87.06,1.71.04,2.52,0,0-10.41,9.81-11.11,10.57-.7.74-2.35,3.7-3.4,5-1.05,1.31-4.16,1.55-5.21.15-1.05-1.41,2.56-4.3,2.65-4.9.1-.6-3.25.65-3.16-.4.1-1.05,3.31-3,4.31-3.2,1-.2,6.81-9.32,8.56-11.82.08-.12.15-.24.22-.37,1.44.45,6.24,1.69,6.99,2.47h.1Z"/>
          <path class="cls-13" d="m104.92,78.29c0,.54-.19,1.14-.51,1.71-.79,1.45-2.35,2.72-3.32,2.37-.91-.34-.94-1.55-1.13-2.58-.08-.5-.21-.95-.5-1.25-.29-.3-.63-.35-.96-.29h0c-.66.12-1.26.69-1.26.69-.78-1.83,1.47-3.81,1.47-3.81,0,0-1.46-11.55-2.36-15.46v-.05c1.46-.18,5.82-2.24,7.47-3.11h0c.35,3.28-.02,18.5-.02,18.5,0,0,.91,1.16,1.1,2.79.02.16.03.32.03.49Z"/>
          <path class="cls-4" d="m82.99,73.48h0v.02c-.12.4-2.37,7.91-4.34,15.91-1.65-5.54-2.56-10.15-2.73-11.03h0c.95.09,1.84.03,2.05-.13.25-.18.19-2.18,0-4.61h.07s4.9-.5,4.9-.5h.02c0,.12.02.24.03.35Z"/>
          <path class="cls-12" d="m104.76,124.61h0c-1.74,1.91-7.45,3.24-7.45,3.24h0s-5.46-11.25-11.02-20.86c.82-2.65,3.06-8.22,5.07-14.19.69,4.74,1.84,10.33,2.62,11.18.34.38,1.75.54,3.68.55l7.11,20.07Z"/>
          <path class="cls-18" d="m95.01,75.93c.12,2.47-.45,5.7-1.35,9.18-1.43.27-2.54.57-2.76.86-.31.39-.05,3.4.46,6.84-2.01,5.97-4.25,11.53-5.07,14.19-.08.23-.14.45-.19.63-.85,3.19.17,16.33.84,23.76-1.94.82-8.31.64-8.31.64,0,0-3.2-17.55-2.94-26.36.11-3.76,1.45-10.15,2.96-16.25,1.97-8,4.22-15.51,4.34-15.91h0v-.02c.27,2.89.55,4.88.82,5.05.76.52,8.25-1.51,11.21-2.61Z"/>
          <path class="cls-10" d="m102.29,52.74c.28-.11.46-.17.53-.14.47.2,2.1,3.16,1.6,3.56-.07.06-.29.18-.61.35-1.64.87-6.01,2.92-7.47,3.11-.18.02-.31.02-.39-.02-.55-.25-.97-1.16-1.28-1.8-.19-.41-.12-.86.26-1.08.04-.02.07-.04.11-.06,1.72-.99,5.78-3.29,7.25-3.91Z"/>
          <path class="cls-21" d="m92.41,36.88c1.67,2.74,8.84,14.19,9.88,15.86-1.47.62-5.53,2.92-7.25,3.91-.5-.83-1.11-1.73-1.76-2.62-1.2-1.67-2.49-3.32-3.28-4.43-1.6-2.25-4.06-5.36-3.11-9.76.95-4.41,4.57-4.06,4.57-4.06h0c.38.33.7.7.95,1.11Z"/>
          <path class="cls-32" d="m95.01,75.92h0c-2.96,1.11-10.45,3.14-11.21,2.62-.26-.18-.54-2.16-.81-5.05,0-.11-.02-.23-.03-.35-.68-7.65-1.23-21.13-1.02-24.98.26-4.77,1.04-9.01,1.43-10.96h.04c.78-.52,1.82-.02,1.82-.02,0,0,.13-.31.2-2.36.02-.72-.24-1.31-.59-1.75l.1-.08s4.21.71,6.52,2.8h0s-3.61-.34-4.57,4.07c-.95,4.41,1.51,7.51,3.11,9.76.78,1.11,2.07,2.76,3.28,4.43l-.02.02c-.3,3.8,3.1,20.73,2.96,21.28-.03.1-.48.32-1.2.58Z"/>
          <path class="cls-10" d="m84.84,33.06c.35.45.62,1.03.59,1.75-.07,2.04-.2,2.36-.2,2.36,0,0-1.03-.5-1.82.03h-.04c.06-.27.1-.49.14-.66.32-1.47.02-3.07.02-3.07l-.25-1.54h0v-.07s.04,0,.04,0c0,0,.91.38,1.53,1.21Z"/>
          <path class="cls-20" d="m77,36.76c.32-1.63.71-2.33.71-2.33,0,0,3.59,1.82,5.81-.97,0,0,.3,1.6-.02,3.07-.04.18-.08.39-.14.66-.39,1.95-1.17,6.19-1.43,10.96-.21,3.85.34,17.33,1.02,24.98h-.02l-4.9.5h-.07c-.14-1.83-.34-3.93-.54-5.69-.46-4.08-.97-24.3-.77-28.14.06-1.25.2-2.25.35-3.04Z"/>
          <path class="cls-32" d="m74.34,59.65h0c-.67-6.31-1.6-10.71-1.67-15.2-.06-5.14,1.78-9.69,3.45-10.21h.02c-.42.58-.83,1.23-1.03,1.87,0,0,1.06.62,1.89.66-.15.79-.29,1.79-.35,3.04-.2,3.84.3,24.06.77,28.14.2,1.75.41,3.85.54,5.7.18,2.44.24,4.43,0,4.61-.21.16-1.11.22-2.05.12-1.07-.1-2.18-.39-2.43-.95-.39-.9,1.16-5.31,1.25-11.39.02-.81,0-1.65-.04-2.52-.02-.34-.04-.69-.07-1.04-.08-.99-.18-1.92-.27-2.82Z"/>
          <path class="cls-10" d="m77.61,32.56c.14.48.02,1.48.1,1.87,0,0-.39.7-.71,2.33-.83-.04-1.89-.66-1.89-.66.21-.63.61-1.28,1.03-1.86.17-.23.34-.46.51-.65.42-.5.8-.88.95-1.03Z"/>
          <path class="cls-21" d="m76.66,33.59c-.17.19-.34.42-.51.65h-.02c-1.67.51-3.52,5.06-3.45,10.21.06,4.49.99,8.89,1.67,15.2-.18-.09-1.48-.72-2.93-1.03-1.12-.23-2.31-.28-3.01-.25.83-4.14,1.1-10.97,2.07-16.12,1.3-6.86,6.1-8.72,6.1-8.72l.08.06Z"/>
          <path class="cls-10" d="m74.69,63.51h-.1c-.75-.77-5.55-2.01-6.99-2.46h0c-.2-.07-.34-.12-.38-.15-.4-.26.25-2.2.62-2.46.06-.03.26-.06.58-.08.7-.03,1.89.02,3.01.25,1.45.31,2.76.95,2.93,1.03h0c.1.91.19,1.84.27,2.83.03.35.06.7.07,1.04Z"/>
          <path class="cls-3" d="m116.05,83.78c-.38-.8-5.58-.18-8.33-.14,0-.87-.11-3.28-1.66-4.92-.35-.37-.74-.67-1.18-.91.02.16.03.32.03.49,0,.54-.19,1.14-.51,1.71.09.08.17.15.24.23.97,1.01,1.07,2.77,1.07,3.47-2.13.1-3.86.26-3.86.26,0,0-1.59.16-3.56.42-.05-.72-.09-2.59.82-3.82.23-.32.51-.58.85-.78-.08-.5-.21-.95-.5-1.25-.29-.3-.63-.35-.96-.29h0c-.37.28-.68.61-.97,1-1.38,1.88-1.3,4.48-1.23,5.41-.91.14-4.56.84-5.37,1-1.43.27-2.54.57-2.76.86-.31.39-.02,8.5.48,11.94.69,4.74,1.84,10.33,2.62,11.18.34.38,4.49,0,6.41,0,5.55.02,17.86-1.99,18.8-2.88,1.27-1.2.38-21.32-.43-22.99Z"/>
          <path class="cls-7" d="m84.8,24.05s2,.37,1.83,2.23-2.44,1.97-2.44,1.97c0,0,1.07.97.63,1.83-.43.87-1.74.74-1.74.74l.17,1.03v.07s-.25-.08-.27-.1c-.09-.07-.15-.17-.2-.26-.12-.24-.15-.53-.17-.79-.06-.66-.08-1.33-.12-2-.04-.74-.19-1.58-.7-2.15-.29-.33-.95-.89-1.44-.64-.69.35-.58,2.64-1.29,2.57-.38-.03-.71-2.45-.71-2.45-.95-.23-1.84-1.02-1.84-1.02,0,0-.83.46-1.35.54-.52.06-1.37-.3-1.37-.3,0,0-.32.43-.92.94-.1.09-.22.16-.34.21-.57.27-1.3.18-1.76-.51-.57-.83.26-2.13.26-2.13,0,0-.94-1.57-.2-2.54.74-.97,2.47-.74,2.47-.74,0,0,.1-1.8,1.91-2.6,1.8-.8,3.2,1.17,3.2,1.17,0,0,1-1.5,2.5-.7,1.51.8,1.37,2.13,1.37,2.13,0,0,1.94-.66,2.64.43.7,1.11-.13,3.08-.13,3.08Z"/>
          <path class="cls-5" d="m82.22,27.31c.26,1.14-.5,2.32-1.72,2.41,0,0,.49.9,1.29.77.8-.12.75-1.24.71-1.73-.04-.49-.28-1.46-.28-1.46Z"/>
          <path class="cls-5" d="m80.25,27.23c.03-.24.3-.42.51-.49.34-.11.46.09.6.38.21.44.21,1.42-.44,1.47-.3.02-.79-.06-.74-.46.02-.18.23-.33.19-.53-.05-.22-.23-.19-.08-.45"/>
        </g>
        <g>
          <path class="cls-16" d="m108.43,96.19c-.12-1.2-.65-2.29-1.46-3.09-.91-.92-2.19-1.48-3.58-1.48-1.09,0-2.1.35-2.93.93l.97,1.36c.55-.39,1.23-.62,1.96-.62.94,0,1.78.38,2.4.99.51.51.85,1.17.96,1.91h-.79l1.67,2.89,1.67-2.89h-.85Z"/>
          <path class="cls-16" d="m103.39,100.07c-.94,0-1.78-.38-2.4-.99-.51-.51-.85-1.17-.96-1.91h.79l-1.67-2.89-1.67,2.89h.85c.12,1.2.65,2.29,1.46,3.09.91.92,2.19,1.48,3.58,1.48,1.05,0,2.03-.32,2.84-.87l-.94-1.38c-.54.37-1.19.58-1.9.58Z"/>
        </g>
      </g>
      <path class="cls-9" d="m169.93,143.71H6.14c-2.03,0-3.69-1.66-3.69-3.69h0c0-2.03,1.66-3.69,3.69-3.69h163.78c2.03,0,3.69,1.66,3.69,3.69h0c0,2.03-1.66,3.69-3.69,3.69Z"/>
    </g>
  </g>
</svg>