<?xml version="1.0" encoding="UTF-8"?>
<svg id="Layer_2" data-name="Layer 2" xmlns="http://www.w3.org/2000/svg" xmlns:xlink="http://www.w3.org/1999/xlink" viewBox="0 0 176.07 143.71">
  <defs>
    <style>
      .cls-1 {
        fill: url(#New_Gradient_Swatch_8);
      }

      .cls-2 {
        fill: url(#linear-gradient-2);
      }

      .cls-3 {
        fill: url(#linear-gradient-17);
      }

      .cls-4 {
        fill: #ffc172;
      }

      .cls-5 {
        fill: url(#New_Gradient_Swatch_6);
      }

      .cls-6 {
        fill: #c6dff2;
      }

      .cls-7 {
        fill: #eaad8f;
      }

      .cls-8 {
        fill: url(#linear-gradient-15);
      }

      .cls-9 {
        fill: url(#linear-gradient-18);
      }

      .cls-10 {
        fill: url(#linear-gradient-14);
      }

      .cls-11 {
        fill: #d9e9f6;
      }

      .cls-12 {
        fill: url(#linear-gradient-20);
      }

      .cls-13 {
        fill: url(#linear-gradient-6);
      }

      .cls-14 {
        fill: #2f2f66;
      }

      .cls-15 {
        fill: url(#New_Gradient_Swatch_4-2);
      }

      .cls-16 {
        fill: #f0c6ae;
      }

      .cls-17 {
        fill: #565588;
      }

      .cls-18 {
        fill: url(#linear-gradient-11);
      }

      .cls-19 {
        fill: url(#linear-gradient-10);
      }

      .cls-20 {
        fill: #e5a055;
      }

      .cls-21 {
        fill: url(#linear-gradient-16);
      }

      .cls-22 {
        fill: url(#New_Gradient_Swatch_4);
      }

      .cls-23 {
        fill: url(#New_Gradient_Swatch_4-3);
      }

      .cls-24 {
        fill: url(#linear-gradient-21);
      }

      .cls-25 {
        fill: #404089;
      }

      .cls-26 {
        fill: url(#linear-gradient-5);
      }

      .cls-27 {
        fill: url(#New_Gradient_Swatch_10);
      }

      .cls-28 {
        fill: #9ac8e5;
      }

      .cls-29 {
        fill: url(#linear-gradient-7);
      }

      .cls-30 {
        fill: url(#linear-gradient-24);
      }

      .cls-31 {
        fill: url(#linear-gradient-9);
      }

      .cls-32 {
        fill: url(#linear-gradient-22);
      }

      .cls-33 {
        fill: url(#linear-gradient-3);
      }

      .cls-34 {
        fill: url(#linear-gradient);
      }

      .cls-35 {
        fill: url(#linear-gradient-23);
      }

      .cls-36 {
        fill: url(#linear-gradient-19);
      }

      .cls-37 {
        fill: url(#linear-gradient-4);
      }

      .cls-38 {
        fill: url(#linear-gradient-8);
      }

      .cls-39 {
        fill: url(#linear-gradient-12);
      }

      .cls-40 {
        fill: url(#linear-gradient-13);
      }

      .cls-41 {
        fill: #32186a;
      }
    </style>
    <linearGradient id="New_Gradient_Swatch_10" data-name="New Gradient Swatch 10" x1="84.15" y1="-3.14" x2="84.15" y2="119.96" gradientUnits="userSpaceOnUse">
      <stop offset="0" stop-color="#efcf64"/>
      <stop offset=".37" stop-color="#e38378"/>
      <stop offset="1" stop-color="#4136eb"/>
    </linearGradient>
    <linearGradient id="linear-gradient" x1="177.08" y1="99.46" x2="177.08" y2="163.51" gradientTransform="translate(15.03 -82.05) rotate(15.05)" gradientUnits="userSpaceOnUse">
      <stop offset="0" stop-color="#9398fb"/>
      <stop offset="1" stop-color="#8c00f9"/>
    </linearGradient>
    <linearGradient id="linear-gradient-2" x1="159.62" y1="120.06" x2="159.62" y2="171.07" xlink:href="#linear-gradient"/>
    <linearGradient id="linear-gradient-3" x1="160.63" y1="104.4" x2="160.63" y2="137.02" gradientUnits="userSpaceOnUse">
      <stop offset="0" stop-color="#9776f0"/>
      <stop offset=".24" stop-color="#8a69f2"/>
      <stop offset=".68" stop-color="#694af9"/>
      <stop offset="1" stop-color="#4d2fff"/>
    </linearGradient>
    <linearGradient id="linear-gradient-4" x1="161.21" y1="111.97" x2="161.21" y2="137.02" gradientUnits="userSpaceOnUse">
      <stop offset="0" stop-color="#84acf8"/>
      <stop offset=".94" stop-color="#9579f0"/>
      <stop offset="1" stop-color="#9776f0"/>
    </linearGradient>
    <linearGradient id="linear-gradient-5" x1="138.17" y1="69.87" x2="138.17" xlink:href="#linear-gradient-3"/>
    <linearGradient id="linear-gradient-6" x1="139.36" y1="80.99" x2="139.36" xlink:href="#linear-gradient-4"/>
    <linearGradient id="linear-gradient-7" x1="125.26" y1="90.92" x2="125.26" xlink:href="#linear-gradient-3"/>
    <linearGradient id="linear-gradient-8" x1="125.25" y1="100.88" x2="125.25" xlink:href="#linear-gradient-4"/>
    <linearGradient id="linear-gradient-9" x1="117.26" y1="106.28" x2="117.26" xlink:href="#linear-gradient-3"/>
    <linearGradient id="linear-gradient-10" x1="116.59" y1="113.08" x2="116.59" xlink:href="#linear-gradient-4"/>
    <linearGradient id="linear-gradient-11" x1="154.18" y1="87" x2="154.18" xlink:href="#linear-gradient-3"/>
    <linearGradient id="linear-gradient-12" x1="154.5" y1="96.46" x2="154.5" xlink:href="#linear-gradient-4"/>
    <linearGradient id="linear-gradient-13" x1="86.34" y1="84.21" x2="86.34" xlink:href="#linear-gradient-3"/>
    <linearGradient id="linear-gradient-14" x1="87.28" y1="96.46" x2="87.28" xlink:href="#linear-gradient-4"/>
    <linearGradient id="linear-gradient-15" x1="49.98" y1="28.31" x2="49.98" xlink:href="#linear-gradient-3"/>
    <linearGradient id="linear-gradient-16" x1="51.91" y1="46.32" x2="51.91" xlink:href="#linear-gradient-4"/>
    <linearGradient id="linear-gradient-17" x1="29.08" y1="62.38" x2="29.08" xlink:href="#linear-gradient-3"/>
    <linearGradient id="linear-gradient-18" x1="29.07" y1="78.52" x2="29.07" xlink:href="#linear-gradient-4"/>
    <linearGradient id="linear-gradient-19" x1="16.13" y1="87.25" x2="16.13" xlink:href="#linear-gradient-3"/>
    <linearGradient id="linear-gradient-20" x1="15.05" y1="98.26" x2="15.05" xlink:href="#linear-gradient-4"/>
    <linearGradient id="linear-gradient-21" x1="75.9" y1="56.03" x2="75.9" xlink:href="#linear-gradient-3"/>
    <linearGradient id="linear-gradient-22" x1="76.41" y1="71.36" x2="76.41" xlink:href="#linear-gradient-4"/>
    <linearGradient id="New_Gradient_Swatch_8" data-name="New Gradient Swatch 8" x1="82.85" y1="84.41" x2="82.85" y2="136.88" gradientUnits="userSpaceOnUse">
      <stop offset="0" stop-color="#4d5dec"/>
      <stop offset=".33" stop-color="#4136eb"/>
      <stop offset="1" stop-color="#420087"/>
    </linearGradient>
    <linearGradient id="linear-gradient-23" x1="49.68" y1="111.51" x2="49.68" xlink:href="#linear-gradient-4"/>
    <linearGradient id="New_Gradient_Swatch_6" data-name="New Gradient Swatch 6" x1="93.1" y1="16.25" x2="108.46" y2="16.25" gradientUnits="userSpaceOnUse">
      <stop offset="0" stop-color="#df697b"/>
      <stop offset="1" stop-color="#be2773"/>
    </linearGradient>
    <linearGradient id="linear-gradient-24" x1="84.74" y1="52.69" x2="84.74" y2="66.4" xlink:href="#linear-gradient-3"/>
    <linearGradient id="New_Gradient_Swatch_4" data-name="New Gradient Swatch 4" x1="111" y1="32.49" x2="118.18" y2="41.26" gradientUnits="userSpaceOnUse">
      <stop offset="0" stop-color="#68acff"/>
      <stop offset=".23" stop-color="#64a7ff"/>
      <stop offset=".5" stop-color="#5a98ff"/>
      <stop offset=".79" stop-color="#4a81ff"/>
      <stop offset="1" stop-color="#3b6bff"/>
    </linearGradient>
    <linearGradient id="New_Gradient_Swatch_4-2" data-name="New Gradient Swatch 4" x1="103.12" y1="29.66" x2="120.77" y2="49.18" xlink:href="#New_Gradient_Swatch_4"/>
    <linearGradient id="New_Gradient_Swatch_4-3" data-name="New Gradient Swatch 4" x1="102.2" y1="40.68" x2="105.96" y2="40.68" xlink:href="#New_Gradient_Swatch_4"/>
  </defs>
  <g id="OBJECTS">
    <g>
      <g>
        <circle class="cls-11" cx="111" cy="69.56" r="65.07"/>
        <circle class="cls-11" cx="56.11" cy="85.74" r="56.11" transform="translate(-40.22 120.65) rotate(-76.72)"/>
        <circle class="cls-11" cx="43.03" cy="42.65" r="31.17"/>
        <circle class="cls-11" cx="65.84" cy="17.36" r="8.98" transform="translate(5.67 49.22) rotate(-42.67)"/>
        <path class="cls-11" d="m81.24,4.49c0,2.48-2.01,4.49-4.49,4.49s-4.49-2.01-4.49-4.49,2.01-4.49,4.49-4.49,4.49,2.01,4.49,4.49Z"/>
      </g>
      <g>
        <path class="cls-27" d="m153.54,77.5c-.32,10.33,3.12,21.07,6,31.09.21,2.57.19,5.06-.12,7.47-.93,7.25-4.4,13.87-12.37,19.17-.77.62-1.57,1.21-2.38,1.79H34.96c-.88-.33-1.73-.71-2.57-1.13-7.59-3.8-13.4-12.63-17.29-19.88-2.65-4.95-5.27-9.96-7.07-14.97-.9-2.5-1.61-5.01-2.03-7.51-2.58-12.52-.39-24.67,4.74-35.71,1.28-2.76,2.75-5.45,4.41-8.02,4.08-6.27,9.5-12.6,16.72-15.22,10.14-3.66,20.86,1.47,30.64,3.92,11.22,2.81,23.14,2.05,33.74-2.73,9.7-4.37,15.6-13.94,25.07-18.45,8.68-4.12,20-5,28.43.21,9.97,6.17,17.26,19.87,11.71,30.88-4.55,9.04-7.62,18.92-7.93,29.09Z"/>
        <g>
          <path class="cls-34" d="m157.55,89.32c2.24-1.35,4.35-3.01,6.06-5.01-2.57-.19-5.16.5-7.4,1.75-2.47,1.38-4.56,3.45-5.88,5.96,2.58-.28,5.03-1.38,7.22-2.71Zm-2.57,33.06c2.24-1.36,4.01-3.42,5.45-5.58,1.47-2.19,2.7-4.6,3.42-7.15-2.44.91-4.52,2.64-6.04,4.74-1.68,2.33-2.71,5.12-2.83,7.99Zm-11.93-30.55c-1.75-2-3.99-3.87-6.57-4.78,1,3.3,2.35,5.94,4.59,8.41,1.75,1.93,4.31,3.44,7,3.85-1.28-2.78-3.05-5.22-5.02-7.48Zm9.5,23.67c2.34-1.12,4.3-2.96,5.94-4.93,1.67-2.01,3.13-4.26,4.09-6.71-2.49.66-4.72,2.15-6.42,4.07-1.89,2.12-3.18,4.76-3.6,7.58Zm10.37-25.29c-2.6.07-5.13,1.01-7.25,2.49-2.34,1.63-4.22,3.9-5.29,6.55,2.56-.55,4.9-1.89,6.97-3.44,2.1-1.57,4.06-3.43,5.57-5.6Zm-19.9,11.88c-1.99-1.76-4.46-3.31-7.14-3.88,1.42,3.14,3.1,5.58,5.65,7.73,1.99,1.69,4.72,2.85,7.45,2.91-1.63-2.6-3.71-4.78-5.96-6.77Zm19.49-4.2c-2.57.4-4.95,1.67-6.86,3.41-2.11,1.92-3.68,4.43-4.39,7.19,2.46-.88,4.62-2.52,6.46-4.33,1.88-1.84,3.58-3.93,4.79-6.28Zm-18.29-13.86c-1.52-2.15-3.55-4.22-6-5.37.43,3.32,1.79,6.18,3.69,8.74,1.54,2.08,3.91,3.81,6.52,4.49-.99-2.87-2.49-5.45-4.2-7.87Zm3.08-6.23c-.97-2.03-2.09-4.19-3.89-5.72-.16,2.71.32,5.61,1.53,7.89,1.03,1.94,2.33,3.98,4.43,5.14-.31-2.52-1.01-5.08-2.07-7.31Zm-4.23,36.08c2.13,1.47,4.94,2.34,7.63,2.13-1.87-2.4-4.13-4.35-6.55-6.08-2.14-1.53-4.73-2.82-7.42-3.1,1.49,3,3.71,5.25,6.34,7.05Zm7.93-28.5c2.21-.38,4.25-1.52,5.97-2.7,1.79-1.22,3.6-2.77,4.96-4.64-2.28-.06-4.46.88-6.14,1.98-1.87,1.23-3.73,3.06-4.79,5.36Zm-5.39,32.34c-2.3-1.33-5.04-2.37-7.78-2.39,2.03,2.81,4.17,4.88,7.1,6.5,2.29,1.27,5.21,1.88,7.9,1.39-2.13-2.24-4.61-3.99-7.22-5.5Zm6.83-40.16c1.49-.1,3.25-.7,5.05-1.71,1.8-1.01,3.31-2.25,4.4-3.51-1.47-.12-3.3.28-5.12,1.23-1.61.85-3.37,2.4-4.33,3.99Zm2.48-11.6c-1.06,2.26-1.72,4.77-1.7,7.27,0,.06,0,.13,0,.19.04-.05.08-.1.12-.14,1.56-1.88,2.77-4.08,3.84-6.24,1.1-2.24,1.97-4.7,2.45-7.2-2.04,1.61-3.61,3.8-4.71,6.14Zm-6.58,6.83c.77,2.06,1.92,3.62,3.13,4.5.01-1.97-.42-4.2-1.07-6.04-.72-2.07-1.66-3.79-2.73-4.85-.33,2-.03,4.52.67,6.4Z"/>
          <path class="cls-17" d="m148.02,99.4c-.09-.05-.18-.1-.27-.14h0s0,0,0,0c-.29-.15-.57-.29-.85-.47-.74-.42-1.46-.93-2.14-1.48-.69-.55-1.36-1.17-1.98-1.85-.62-.68-1.22-1.42-1.73-2.27.54.82,1.15,1.53,1.78,2.17.64.65,1.32,1.23,2.01,1.74.69.51,1.44.97,2.16,1.37.29.16.59.31.88.44.08.04.16.07.23.11.23.11.48.21.73.31,0-2.33.06-4.61.2-6.94-.29-.17-.58-.35-.87-.54-.04-.03-.08-.05-.12-.08h0c-.31-.21-.63-.42-.92-.65-.69-.51-1.36-1.09-1.98-1.7-.63-.62-1.23-1.31-1.78-2.05-.55-.74-1.07-1.54-1.5-2.44.45.87.99,1.63,1.56,2.34.57.71,1.18,1.37,1.82,1.95.64.58,1.33,1.12,2,1.6.33.23.68.44,1.02.66l.03.02c.25.15.51.29.76.43.17-2.1.44-4.22.81-6.3-.22-.21-.43-.42-.64-.64h0c-.25-.26-.49-.53-.72-.81-.46-.55-.9-1.15-1.31-1.77-.41-.62-.79-1.29-1.13-1.98-.34-.69-.66-1.42-.91-2.19.27.75.61,1.46.98,2.12.37.66.76,1.3,1.19,1.89.43.59.89,1.16,1.36,1.67.19.21.39.42.59.62.22.21.44.43.67.63.46-2.59,1.07-5.15,1.81-7.66-.11-.15-.22-.31-.33-.47-.53-.79-1.01-1.65-1.42-2.57-.49-1.13-1.15-3.63-1.15-3.63,0,0,.71,2.47,1.23,3.57.39.82.83,1.59,1.33,2.3.13.19.27.38.41.56.49-1.65.76-2.47,1.35-4.09.56-1.54.86-2.3,1.51-3.81-.26.64-.38.96-.63,1.6.26-.64.39-.95.66-1.59-.62,1.52-.9,2.29-1.42,3.84-.55,1.63-.81,2.45-1.26,4.11.22-.08.43-.17.65-.25.8-.32,1.59-.68,2.37-1.09,1.04-.54,3.06-1.79,3.06-1.79,0,0-1.99,1.31-3.03,1.89-.84.47-1.71.89-2.58,1.27-.17.08-.35.15-.52.22-.68,2.52-1.23,5.09-1.63,7.67.28-.12.56-.24.84-.36.26-.11.51-.23.77-.36.62-.3,1.25-.63,1.86-.96.62-.34,1.22-.7,1.82-1.07.6-.37,1.19-.77,1.76-1.2-.56.46-1.14.88-1.72,1.29-.59.41-1.19.8-1.79,1.17-.61.37-1.23.73-1.85,1.07-.31.17-.63.34-.95.49h0c-.27.14-.54.27-.81.4-.32,2.07-.54,4.18-.65,6.27.27-.1.55-.2.82-.31h.04c.37-.17.75-.32,1.11-.48.74-.33,1.52-.69,2.26-1.07.74-.38,1.48-.8,2.19-1.24.72-.44,1.42-.91,2.09-1.44-.65.56-1.35,1.06-2.05,1.53-.7.47-1.43.92-2.16,1.34-.73.41-1.48.82-2.24,1.18-.33.17-.67.32-1.01.47h0s-.08.04-.13.06c-.31.14-.62.27-.93.4-.09,2.31-.1,4.57-.04,6.88.24-.11.48-.22.71-.34.07-.04.15-.08.23-.12.29-.15.58-.3.87-.46.71-.4,1.44-.83,2.14-1.28.69-.45,1.39-.94,2.05-1.46.66-.51,1.32-1.05,1.92-1.65-.59.62-1.23,1.19-1.88,1.73-.65.54-1.33,1.07-2.01,1.55-.68.48-1.39.97-2.11,1.39-.27.17-.55.33-.82.48h0c-.09.05-.17.1-.26.15-.26.15-.53.29-.8.43.18,3.08.49,6.09.96,9.14.17-.15.33-.3.5-.45.21-.19.41-.39.61-.59.49-.48.97-1,1.45-1.51.47-.52.93-1.06,1.37-1.6.44-.55.88-1.11,1.27-1.7-.38.61-.79,1.2-1.21,1.77-.42.57-.86,1.14-1.31,1.69-.45.55-.92,1.09-1.4,1.61-.24.26-.49.53-.74.78h0c-.15.16-.31.31-.46.46.36,2.09.83,4.19,1.39,6.23.18-.15.36-.3.54-.45l.03-.03c.3-.27.61-.53.9-.8.59-.56,1.21-1.15,1.78-1.76.57-.6,1.13-1.24,1.66-1.9.53-.65,1.05-1.33,1.5-2.05-.43.74-.93,1.44-1.44,2.12-.51.68-1.05,1.35-1.61,1.98-.55.63-1.13,1.26-1.73,1.85-.26.27-.53.52-.8.78h0s-.07.07-.1.1c-.2.19-.41.38-.62.57.66,2.25,1.38,4.42,2.19,6.63.16-.16.33-.32.48-.48.06-.06.12-.13.18-.19.22-.23.45-.48.67-.72.53-.61,1.09-1.27,1.59-1.93.51-.66,1-1.36,1.45-2.07.46-.71.9-1.44,1.27-2.21-.35.79-.77,1.54-1.2,2.27-.43.73-.9,1.46-1.39,2.14-.49.69-.99,1.38-1.53,2.03-.2.26-.41.49-.62.73h0s0,0,0,0c-.07.07-.13.15-.19.23-.17.2-.36.4-.54.6,1.69,4.1,3.64,7.97,5.93,11.77-.36.22-.54.33-.9.56-2.29-3.87-4.23-7.81-5.92-11.99-.27-.02-.54-.05-.81-.09-.1-.01-.2-.03-.3-.05h0s0,0,0,0c-.32-.05-.64-.09-.96-.17-.84-.16-1.69-.42-2.52-.71-.83-.3-1.67-.67-2.48-1.12-.81-.45-1.62-.96-2.39-1.6.78.6,1.59,1.08,2.4,1.49.81.41,1.65.75,2.48,1.01.82.26,1.68.46,2.49.6.32.06.66.1.98.13.09,0,.17.02.26.03.22.03.45.04.68.05-.8-2.24-1.51-4.44-2.16-6.73-.28-.06-.55-.12-.83-.19-.05-.01-.09-.03-.14-.04h0c-.36-.1-.73-.19-1.09-.32-.82-.26-1.64-.59-2.43-.97-.79-.38-1.59-.84-2.35-1.36-.76-.52-1.52-1.11-2.21-1.82.71.68,1.47,1.22,2.24,1.71.77.49,1.57.91,2.36,1.25.79.34,1.62.63,2.42.86.39.11.79.2,1.18.3h.04c.23.06.46.1.69.14-.55-2.07-1.01-4.2-1.36-6.31-.2-.09-.39-.19-.59-.29h0c-.32-.16-.64-.34-.95-.53-.61-.37-1.23-.79-1.82-1.24-.59-.45-1.16-.95-1.71-1.49-.55-.54-1.08-1.12-1.57-1.77.51.62,1.05,1.17,1.62,1.67.56.51,1.15.97,1.74,1.39.6.42,1.22.8,1.83,1.13.25.14.51.27.76.39.2.1.41.19.61.27-.45-3.09-.74-6.14-.89-9.25-.28-.12-.56-.25-.83-.39Z"/>
        </g>
        <g>
          <path class="cls-2" d="m135.89,98.7c1.78-1.08,3.47-2.39,4.82-3.99-2.05-.15-4.11.4-5.89,1.4-1.97,1.1-3.63,2.75-4.68,4.75,2.05-.23,4-1.1,5.75-2.15Zm-2.05,26.33c1.78-1.09,3.19-2.73,4.34-4.44,1.17-1.75,2.15-3.66,2.72-5.7-1.94.73-3.6,2.1-4.81,3.77-1.34,1.85-2.15,4.08-2.25,6.37Zm-9.5-24.33c-1.39-1.6-3.18-3.08-5.23-3.81.8,2.63,1.87,4.73,3.66,6.69,1.4,1.54,3.43,2.74,5.58,3.07-1.02-2.22-2.43-4.16-4-5.96Zm7.57,18.85c1.87-.89,3.42-2.36,4.73-3.93,1.33-1.6,2.49-3.39,3.26-5.34-1.99.53-3.76,1.71-5.12,3.24-1.5,1.69-2.53,3.79-2.87,6.03Zm8.25-20.14c-2.07.05-4.08.8-5.77,1.98-1.86,1.3-3.36,3.11-4.21,5.22,2.04-.44,3.91-1.51,5.55-2.74,1.68-1.25,3.23-2.73,4.44-4.46Zm-15.84,9.46c-1.59-1.4-3.55-2.64-5.68-3.09,1.13,2.5,2.47,4.44,4.5,6.16,1.58,1.34,3.76,2.27,5.93,2.32-1.3-2.07-2.95-3.81-4.74-5.39Zm15.52-3.35c-2.05.32-3.94,1.33-5.47,2.71-1.68,1.53-2.93,3.53-3.5,5.73,1.96-.7,3.68-2.01,5.15-3.45,1.5-1.46,2.85-3.13,3.82-5Zm-14.56-11.04c-1.21-1.71-2.82-3.36-4.78-4.28.34,2.65,1.43,4.92,2.94,6.96,1.22,1.65,3.11,3.04,5.19,3.58-.79-2.28-1.98-4.34-3.35-6.27Zm2.45-4.96c-.77-1.62-1.66-3.34-3.1-4.56-.13,2.15.26,4.46,1.22,6.29.82,1.55,1.85,3.17,3.53,4.09-.24-2.01-.81-4.04-1.65-5.82Zm-3.37,28.73c1.7,1.17,3.93,1.87,6.08,1.7-1.49-1.91-3.29-3.47-5.21-4.85-1.7-1.22-3.77-2.24-5.91-2.47,1.19,2.39,2.96,4.18,5.05,5.62Zm6.31-22.69c1.76-.31,3.38-1.21,4.75-2.15,1.42-.97,2.87-2.2,3.95-3.69-1.81-.05-3.55.7-4.89,1.57-1.49.98-2.97,2.44-3.81,4.26Zm-4.29,25.75c-1.84-1.06-4.01-1.89-6.19-1.9,1.62,2.24,3.32,3.88,5.65,5.17,1.82,1.01,4.15,1.49,6.29,1.11-1.69-1.78-3.67-3.17-5.75-4.38Zm5.44-31.98c1.18-.08,2.59-.56,4.02-1.36s2.64-1.79,3.5-2.8c-1.17-.1-2.62.22-4.08.98-1.29.67-2.68,1.91-3.44,3.18Zm1.98-9.24c-.85,1.8-1.37,3.8-1.36,5.79,0,.05,0,.1,0,.15.03-.04.06-.08.1-.12,1.24-1.5,2.21-3.25,3.06-4.97.88-1.78,1.57-3.75,1.95-5.73-1.63,1.29-2.87,3.02-3.75,4.89Zm-5.24,5.44c.61,1.64,1.53,2.89,2.49,3.58,0-1.57-.34-3.34-.85-4.81-.57-1.65-1.32-3.02-2.18-3.86-.26,1.59-.02,3.6.53,5.09Z"/>
          <path class="cls-17" d="m128.3,106.73c-.07-.04-.14-.08-.21-.11h0s0,0,0,0c-.23-.12-.45-.23-.67-.37-.59-.34-1.16-.74-1.71-1.18-.55-.43-1.08-.93-1.58-1.47-.5-.54-.97-1.13-1.38-1.81.43.65.91,1.22,1.42,1.73.51.51,1.05.98,1.6,1.39.55.4,1.15.77,1.72,1.09.23.13.47.24.7.35.06.03.12.06.19.09.19.09.38.17.58.24,0-1.86.05-3.67.16-5.53-.23-.14-.46-.28-.69-.43-.03-.02-.06-.04-.09-.06h0c-.25-.17-.5-.33-.74-.52-.55-.4-1.08-.87-1.58-1.35-.5-.49-.98-1.04-1.42-1.63-.44-.59-.85-1.23-1.19-1.94.36.69.79,1.3,1.24,1.87.45.56.94,1.09,1.45,1.55.51.46,1.06.89,1.6,1.27.26.18.54.35.81.53l.03.02c.2.12.4.23.61.34.13-1.67.35-3.36.64-5.01-.17-.17-.34-.34-.51-.51h0c-.2-.21-.39-.42-.58-.65-.37-.44-.72-.91-1.04-1.41-.33-.5-.63-1.02-.9-1.58-.27-.55-.52-1.13-.72-1.75.22.6.49,1.16.78,1.69.29.53.61,1.03.95,1.5.34.47.71.92,1.08,1.33.15.17.31.33.47.49.17.17.35.34.53.5.37-2.06.85-4.1,1.44-6.1-.09-.12-.18-.24-.26-.37-.42-.63-.81-1.31-1.13-2.05-.39-.9-.91-2.89-.91-2.89,0,0,.57,1.97.98,2.84.31.66.66,1.27,1.06,1.83.11.15.21.3.33.45.39-1.31.61-1.96,1.08-3.25.45-1.22.69-1.83,1.21-3.03-.21.51-.3.76-.5,1.27.2-.51.31-.76.53-1.26-.49,1.21-.72,1.82-1.13,3.05-.44,1.3-.64,1.95-1,3.27.17-.06.34-.13.51-.2.63-.26,1.26-.54,1.88-.87.83-.43,2.43-1.43,2.43-1.43,0,0-1.59,1.05-2.41,1.5-.67.37-1.36.71-2.05,1.01-.14.06-.28.12-.42.17-.54,2.01-.98,4.05-1.3,6.11.22-.09.45-.19.67-.29.2-.09.41-.19.61-.28.49-.24.99-.5,1.48-.77.49-.27.97-.56,1.45-.85.48-.3.95-.61,1.4-.96-.44.37-.91.7-1.37,1.03-.47.32-.94.64-1.43.93-.48.29-.98.58-1.47.85-.25.13-.5.27-.76.39h0c-.21.11-.43.21-.65.32-.25,1.65-.43,3.33-.52,4.99.22-.08.43-.16.65-.24h.03c.29-.14.6-.25.88-.38.59-.26,1.21-.55,1.8-.85.59-.3,1.17-.64,1.74-.99.57-.35,1.13-.72,1.66-1.15-.52.45-1.07.84-1.63,1.22-.56.38-1.14.74-1.72,1.07-.58.33-1.18.65-1.78.94-.26.14-.54.25-.8.38h0s-.07.03-.1.05c-.25.11-.49.21-.74.32-.07,1.84-.08,3.64-.03,5.48.19-.09.38-.17.56-.27.06-.03.12-.06.18-.09.23-.12.47-.24.69-.36.56-.32,1.15-.66,1.7-1.02.55-.36,1.1-.75,1.63-1.16.53-.41,1.05-.84,1.53-1.32-.47.5-.98.95-1.49,1.38-.52.43-1.06.85-1.6,1.24-.54.39-1.11.77-1.68,1.11-.21.14-.43.26-.66.39h0c-.07.04-.14.08-.21.12-.21.12-.43.23-.64.34.14,2.45.39,4.85.76,7.28.13-.12.26-.24.39-.36.16-.15.33-.31.48-.47.39-.38.78-.79,1.15-1.21.38-.41.74-.84,1.09-1.28.35-.44.7-.89,1.01-1.36-.3.49-.63.96-.96,1.41-.34.46-.68.91-1.05,1.34-.36.44-.74.87-1.11,1.28-.19.21-.39.42-.59.62h0c-.12.13-.24.25-.37.37.29,1.66.66,3.33,1.11,4.96.14-.12.29-.24.43-.36l.02-.02c.24-.22.48-.42.71-.64.47-.45.96-.92,1.42-1.4.46-.48.9-.99,1.32-1.51.42-.52.84-1.06,1.2-1.63-.34.59-.74,1.15-1.14,1.69-.41.54-.84,1.07-1.28,1.58-.44.5-.9,1.01-1.38,1.48-.2.22-.42.42-.64.62h0s-.05.05-.08.08c-.16.15-.33.3-.5.45.53,1.79,1.1,3.52,1.74,5.28.13-.13.26-.25.38-.38.05-.05.09-.1.14-.15.18-.19.36-.38.53-.58.43-.49.86-1.01,1.27-1.54.4-.52.79-1.08,1.16-1.64.36-.56.71-1.15,1.01-1.76-.28.63-.61,1.22-.96,1.81-.35.58-.72,1.16-1.1,1.71-.39.55-.79,1.1-1.22,1.61-.16.2-.32.39-.49.58h0s0,0,0,0c-.05.06-.1.12-.16.18-.14.16-.29.32-.43.48,1.35,3.27,2.9,6.35,4.72,9.38-.29.18-.43.27-.72.44-1.82-3.08-3.37-6.22-4.71-9.54-.21-.02-.43-.04-.64-.07-.08-.01-.16-.03-.24-.04h0s0,0,0,0c-.25-.04-.51-.07-.76-.13-.67-.13-1.35-.33-2-.57-.66-.24-1.33-.54-1.98-.89-.65-.35-1.29-.76-1.9-1.27.62.48,1.27.86,1.91,1.19.65.32,1.32.6,1.97.8.65.21,1.34.36,1.99.48.26.05.52.08.78.11.07,0,.14.02.2.02.18.02.36.03.54.04-.64-1.78-1.2-3.54-1.72-5.36-.22-.05-.44-.09-.66-.15-.04-.01-.07-.02-.11-.03h0c-.29-.08-.58-.15-.87-.25-.65-.2-1.3-.47-1.93-.77-.63-.3-1.27-.67-1.87-1.08-.61-.41-1.21-.88-1.76-1.45.57.54,1.17.97,1.78,1.36.61.39,1.25.72,1.88,1,.63.27,1.29.5,1.93.68.31.09.63.16.94.24h.03c.18.05.37.08.55.11-.44-1.65-.8-3.34-1.08-5.03-.16-.08-.31-.15-.47-.23h0c-.25-.13-.51-.27-.75-.42-.49-.29-.98-.63-1.45-.99-.47-.36-.93-.76-1.37-1.19-.44-.43-.86-.89-1.25-1.41.4.49.84.93,1.29,1.33.45.4.91.78,1.39,1.11.48.33.97.64,1.46.9.2.11.4.21.61.31.16.08.33.15.49.22-.35-2.46-.59-4.89-.71-7.37-.22-.1-.45-.2-.66-.31Z"/>
        </g>
        <g>
          <g>
            <path class="cls-33" d="m168.87,104.42c1.65.57-.23,11.44-5.65,32.6h-5.86c2.97-8.16,5.75-16.4,8.41-24.67.14-.45-.13-.53-.29-.1-3.13,8.19-6.1,16.45-8.88,24.77h-4.79c9.62-22.33,15.31-33.2,17.06-32.6Z"/>
            <path class="cls-37" d="m165.48,112.25c.16-.43.43-.35.29.1-2.65,8.27-5.44,16.51-8.41,24.67h-.76c2.78-8.32,5.75-16.58,8.88-24.77Z"/>
          </g>
          <g>
            <path class="cls-26" d="m145.05,137.02h-6.23l.05-2.32.11-4.08c.17-5.44.33-10.88.5-16.32.34-10.88.68-21.77,1.02-32.66.03-.87-.26-.86-.31-.01-.66,10.86-1.18,21.75-1.54,32.64-.18,5.44-.31,10.89-.39,16.34l-.04,4.09v2.33h-6.93c4.48-49.78,7.47-67.23,9.49-67.15,2.02.08,3.64,17.58,4.26,67.15Z"/>
            <path class="cls-13" d="m140.19,81.63c.05-.84.33-.85.31.01-.34,10.88-.68,21.77-1.02,32.66-.17,5.44-.33,10.88-.5,16.32l-.11,4.08-.05,2.32h-.59v-2.33s.04-4.09.04-4.09c.08-5.45.21-10.89.39-16.34.36-10.89.88-21.77,1.54-32.64Z"/>
          </g>
          <g>
            <path class="cls-29" d="m129.68,137.02h-3.6c-.14-11.92-.64-23.85-1.35-35.77-.03-.51-.31-.48-.31.01.11,11.92.5,23.86,1.22,35.76h-4.8c.44-27.64,1.98-46.06,3.27-46.1,1.37-.04,3.23,15.33,5.56,46.1Z"/>
            <path class="cls-38" d="m126.08,137.02h-.44c-.72-11.9-1.11-23.84-1.22-35.76,0-.49.28-.52.31-.01.72,11.92,1.21,23.85,1.35,35.77Z"/>
          </g>
          <g>
            <path class="cls-31" d="m123.03,137.02h-3.47c-1.64-7.95-3.54-15.85-5.63-23.7-.1-.37-.37-.29-.3.07,1.53,7.93,3.3,15.82,5.32,23.63h-4.86c-2.65-20.2-3.27-30.45-1.86-30.74,1.45-.3,5.05,9.95,10.81,30.74Z"/>
            <path class="cls-19" d="m119.56,137.02h-.61c-2.02-7.82-3.78-15.71-5.32-23.63-.07-.36.2-.44.3-.07,2.08,7.85,3.99,15.75,5.63,23.7Z"/>
          </g>
          <g>
            <path class="cls-18" d="m164.49,87.01c1.49.47-2.17,17.14-10.97,50.02h-5.3c4.59-13.27,8.96-26.62,13.17-40.02.21-.67-.06-.74-.29-.1-4.73,13.29-9.26,26.68-13.56,40.12h-3.98c12.43-33.83,19.42-50.5,20.95-50.02Z"/>
            <path class="cls-39" d="m161.09,96.9c.23-.64.5-.57.29.1-4.21,13.4-8.58,26.75-13.17,40.02h-.69c4.31-13.44,8.84-26.83,13.56-40.12Z"/>
          </g>
        </g>
        <g>
          <g>
            <path class="cls-40" d="m99.68,84.25c2.68.92-.37,18.52-9.14,52.78h-9.48c4.8-13.22,9.31-26.55,13.61-39.94.23-.73-.2-.86-.47-.16-5.07,13.26-9.88,26.63-14.38,40.11h-7.75c15.58-36.16,24.78-53.75,27.61-52.78Z"/>
            <path class="cls-10" d="m94.2,96.92c.27-.7.7-.57.47.16-4.3,13.4-8.8,26.73-13.61,39.94h-1.24c4.5-13.47,9.3-26.85,14.38-40.11Z"/>
          </g>
          <g>
            <path class="cls-8" d="m61.11,137.02h-10.09l.09-3.76.18-6.61c.27-8.81.54-17.61.81-26.42.55-17.62,1.1-35.25,1.65-52.87.04-1.41-.41-1.38-.5-.02-1.06,17.59-1.9,35.21-2.49,52.84-.29,8.81-.5,17.63-.63,26.45l-.06,6.61v3.78h-11.23c7.25-80.59,12.09-108.84,15.37-108.72,3.27.13,5.9,28.47,6.9,108.72Z"/>
            <path class="cls-21" d="m53.25,47.34c.08-1.36.54-1.38.5.02-.55,17.62-1.1,35.25-1.65,52.87-.27,8.81-.54,17.62-.81,26.42l-.18,6.61-.09,3.76h-.95v-3.78s.07-6.61.07-6.61c.12-8.82.33-17.64.63-26.45.58-17.63,1.42-35.25,2.49-52.84Z"/>
          </g>
          <g>
            <path class="cls-3" d="m36.23,137.02h-5.82c-.23-19.31-1.03-38.62-2.19-57.91-.05-.82-.5-.78-.5.02.17,19.3.81,38.63,1.97,57.89h-7.77c.72-44.75,3.2-74.57,5.3-74.64,2.22-.07,5.22,24.81,9.01,74.64Z"/>
            <path class="cls-9" d="m30.41,137.02h-.72c-1.16-19.27-1.8-38.59-1.97-57.89,0-.8.45-.84.5-.02,1.16,19.29,1.96,38.6,2.19,57.91Z"/>
          </g>
          <g>
            <path class="cls-36" d="m25.48,137.02h-5.62c-2.65-12.87-5.74-25.66-9.11-38.37-.16-.6-.6-.48-.48.11,2.48,12.83,5.34,25.6,8.61,38.26h-7.87c-4.3-32.7-5.3-49.29-3.02-49.76,2.35-.48,8.18,16.11,17.5,49.76Z"/>
            <path class="cls-12" d="m19.85,137.02h-.99c-3.26-12.66-6.12-25.43-8.61-38.26-.11-.59.33-.71.48-.11,3.37,12.71,6.46,25.5,9.11,38.37Z"/>
          </g>
          <g>
            <path class="cls-24" d="m92.6,56.05c2.41.77-3.51,27.75-17.77,80.97h-8.59c7.43-21.48,14.5-43.1,21.32-64.79.34-1.08-.1-1.19-.47-.16-7.65,21.52-14.99,43.19-21.96,64.95h-6.45c20.13-54.77,31.44-81.76,33.92-80.97Z"/>
            <path class="cls-32" d="m87.09,72.07c.37-1.04.81-.92.47.16-6.82,21.69-13.89,43.31-21.32,64.79h-1.11c6.97-21.76,14.31-43.43,21.96-64.95Z"/>
          </g>
        </g>
        <path class="cls-1" d="m65.23,125.1c-1.42-.98-3.04-1.65-4.69-1.85,3.18,1.07,5.44,3.69,6.66,6.51.96,2.24,1.36,4.66,1.49,7.12h14.63c.13-3.25,1.23-6.56,3.05-9.49,2.29-3.69,5.65-6.86,9.72-8.84-4.32,1.38-8.27,4.09-11.3,7.69-1.38,1.65-2.57,3.52-3.48,5.55,3.14-14.45,11.61-27.97,23.85-36.99-12.56,7.96-22.18,20.69-26.68,35.23.37-4.38,1.07-8.75,2.12-13.04,2.08-8.39,5.51-16.61,11.02-23.47-6.01,6.44-10.15,14.52-12.9,22.94-1.03,3.18-1.87,6.42-2.53,9.71.06-5.44.27-10.94.11-16.45-.13-4.36-.51-8.74-1.37-13.02-.86-4.28-2.23-8.46-4.28-12.28,1.76,3.96,2.79,8.18,3.32,12.44.53,4.26.58,8.56.38,12.84-.25,5.41-.87,10.81-1.34,16.28-2.76-10.49-6.97-20.53-12.47-29.73,5.82,11.89,9.48,24.72,10.87,37.69-.62-1.8-1.42-3.55-2.51-5.13-1.01-1.46-2.25-2.73-3.67-3.71Z"/>
        <path class="cls-35" d="m66.45,136.65c3.61-2.2,5.22-5.54,4.43-7.2-.86-1.81-5.09-2.77-9.6-.37.15-.68,2.36-11.09,0-12.01-1.89-.74-5.79,4.99-6.65,6.28.87-7.52.68-11.46-.55-11.82-.91-.27-2.39,1.39-4.43,4.99-.74-2.59-1.48-3.88-2.22-3.88-1.44,0-2.85,4.99-4.25,14.96-.69-3.64-2.14-10.14-4.06-10.16-2.4-.03-4.27,10.07-4.8,13.11-3.12-3.29-5.02-4.7-5.73-4.25-.89.57.16,4.14,3.14,10.71,11.57-.12,23.15-.25,34.72-.37Z"/>
        <g>
          <g>
            <path class="cls-5" d="m94.84,18.94c.16-.37-.64-1.83-.32-3.26.32-1.44,7.19-4.5,8.65-3.77,1.45.73,2.41,2.85,2.41,2.85,0,0,1.87-.92,2.41-.89s.47.68.47.68l-2.96,1.22-10.61,4.4-1.3.54c-.49.08-.55-.33-.45-.54.1-.21,1.54-.85,1.7-1.22Z"/>
            <path class="cls-14" d="m96.56,21.75c-.27.18-.54.32-.82.41-1.7.5-2.18-.21-2.18-.21.74-.19,1.33-1.78,1.33-1.78l10.61-4.4,2.07,4.39c-.54.87-2.29.85-2.63.83.7-.89-.04-3.16-1.33-3.11-1.35.06-.08,2.37-.64,2.8-.56.42-1.22-1.31-2.57-1.52-1.13-.18-2.43,1.69-3.82,2.6Z"/>
            <path class="cls-16" d="m109.48,26.92c-.97.03-2.46.28-3.52,1.49l-.12-.1-1.75-3.06s-1.38,1.44-2.39,1.44-5.14-4.92-5.14-4.92h0c1.39-.92,2.69-2.79,3.82-2.61,1.35.21,2.01,1.95,2.57,1.52.56-.42-.71-2.74.64-2.8,1.29-.05,2.03,2.22,1.33,3.11.35.02,2.1.03,2.63-.83l3.15,6.71.05.1c-.36-.08-.74-.1-1.13-.05-.05,0-.11,0-.16,0Z"/>
            <path class="cls-30" d="m81.11,57.18c2.44.89,6.79-.12,7.25-.23v.46c-1.94,1.56-5.09,1.49-5.47,2.49-.25.64.64,2.08,1.92,3.05-.7.22-2.77,0-3.07-.04l-.63-5.73Z"/>
            <path class="cls-6" d="m88.38,54.24c-.64.62-2.02,1.1-3.65,1.18-1.75.09-3.27-.31-3.91-.93-.2-.2-.31-.42-.32-.65,0-.29.13-.56.4-.82.67.59,2.15.95,3.83.87,1.61-.08,3-.55,3.65-1.17.25.2.38.44.4.71.02.28-.13.56-.39.81h0Z"/>
            <path class="cls-28" d="m88.37,52.72c-.65.62-2.03,1.1-3.65,1.17-1.68.09-3.16-.28-3.83-.87.65-.62,2.03-1.1,3.65-1.18,1.68-.08,3.15.28,3.82.88Z"/>
            <path class="cls-4" d="m88.33,64.62s-1.51,1.3-3.24,1.3-3.11-.82-3.11-.82l-.24-2.19c.3.03,2.37.26,3.07.04.8.61,1.76,1.03,2.69.96.29-.03.56-.08.83-.16v.88Z"/>
            <path class="cls-4" d="m88.36,56.95c-.46.11-4.81,1.12-7.25.23l-.3-2.69c.64.63,2.16,1.03,3.91.93,1.63-.08,3.02-.56,3.65-1.18v.78l-.02,1.92Z"/>
            <path class="cls-41" d="m136.07,123.33c1.27,2.61,2.13,4.48,2.13,4.76,0,.96-12.86,11-14.77,8.34-1.91-2.65,3.56-7.75,3.56-7.75,0,0,6.69-2.14,9.08-5.35Z"/>
            <path class="cls-41" d="m91.24,131.26s5.75,1.53,9.84,1.45c-.48,2.92-.86,4.97-1.06,5.35-.85,1.56-17.63-.21-17.34-1.84.28-1.62,8.57-4.95,8.57-4.95Z"/>
            <path class="cls-16" d="m126.26,103.61c1.27,2.71,6.74,13.39,9.82,19.72-2.39,3.2-9.08,5.35-9.08,5.35,0,0-11.1-20.29-12.8-23.16-1.7-2.87-2.81-7.6-2.81-7.6l11.3-4c.32,3.37,1.77,5.88,3.57,9.69Z"/>
            <path class="cls-16" d="m107.45,98.4s-1.34,3.19-1.98,5.39c-.48,1.67-2.89,19.68-4.39,28.93-4.09.08-9.84-1.45-9.84-1.45,0,0,2.83-26.28,3.04-28.89.2-2.4,2.42-7.67,2.79-8.52,1.66.95,7.46,3.46,10.4,4.48l-.02.08Z"/>
            <path class="cls-14" d="m122.69,93.92l-11.3,4-.42-2.48c1.55-3.47,3.59-8.58,4.42-9.79.99-1.44,4.4-5.29,5.29-8.9l3.35,16.69-1.33.48Z"/>
            <path class="cls-25" d="m97.06,93.85c-.28-.15-.44-.27-.45-.33-.07-.49,1.42-4.53,2.97-6.93,1.51-2.34,4.68-12.11,4.88-12.72h0c2.86.36,12.86,1.44,16.17-.13l.05.1c.21.73.22,1.51.08,2.32-.03.2-.07.4-.11.6-.88,3.6-4.29,7.46-5.29,8.9-.83,1.21-2.87,6.32-4.42,9.79-.83,1.85-1.52,3.24-1.82,3.31-.17.04-.8-.13-1.68-.43-2.94-1.02-8.74-3.53-10.4-4.48Z"/>
            <path class="cls-7" d="m119.47,46.2c.36,2.07.55,4.24.44,6.31-1.26.02-2.22,0-2.22,0h-.05c.14-1.83.12-3.82,0-5.8h.08c.54-.11,1.14-.3,1.75-.52Z"/>
            <path class="cls-7" d="m121.63,45.27c1.07-.52,1.86-.97,1.86-.97l.03-.02c1.57,2.76,2.73,4.89,2.73,5.41,0,1.17-.21,2.24-.21,2.24v.14c-.96.06-2.19.25-3.4.34-.05,0-.11,0-.16,0l-.02-.19c-.11-2.55-.42-4.89-.83-6.96Z"/>
            <path class="cls-16" d="m84.81,62.95c-1.28-.97-2.17-2.41-1.92-3.05.38-1,3.54-.93,5.47-2.49v-.46l.02-1.92c.31.14,2.12.86,4.15.62,1.57-.19,7.48-1.16,11.29-2.58.7-.25,1.32-.53,1.84-.82.67-.37,1.16-.76,1.38-1.16.41-.76.49-2.3.4-4.16.29.03,6.46.71,10.16-.91.02.23.03.47.05.71.13,1.98.15,3.97,0,5.8-.22,2.59-.8,4.86-1.98,6.31-2.72,3.33-8.79,4.1-13.1,4.12-2.11,0-3.79-.16-4.46-.3-2.05-.42-5.6-1.71-5.95-1.66-.3.05-1.78,2.15-3.82,2.76-.27.08-.54.14-.83.16-.93.07-1.9-.35-2.69-.96Z"/>
            <path class="cls-4" d="m105.65,52.25s-1.44-15.14-.91-20.66c.14-1.47.61-2.48,1.22-3.18,1.06-1.21,2.55-1.46,3.52-1.49-.18.02-.36.05-.54.09-3.93.96-3.82,5.18-3.25,8.01.39,1.96,1.52,7.72,1.74,11.9.09,1.86,0,3.41-.4,4.16-.22.41-.71.8-1.38,1.16Z"/>
            <path class="cls-4" d="m110.85,26.8s2.97-.05,6.27,6.16c.45.85.94,1.75,1.46,2.69h0s1.9,3.71,3.06,9.62c.41,2.07.72,4.41.83,6.96l.02.19c-.86.06-1.77.08-2.57.09.11-2.07-.08-4.24-.44-6.31-.99-5.8-3.2-10.89-3.37-11.29,0-.02,0-.03,0-.03-.54-3.69-2.42-7.36-5.32-7.91l-.05-.1.13-.06Z"/>
            <path class="cls-22" d="m117.59,46.01c.02.23.03.47.05.71h.08c.54-.11,1.14-.3,1.75-.52-.99-5.8-3.2-10.89-3.37-11.29.31,2.12,1.14,6.54,1.49,11.11Zm.99-10.36h0s1.9,3.71,3.06,9.62c1.07-.52,1.86-.97,1.86-.97l.03-.02c-1.49-2.6-3.34-5.76-4.95-8.63Z"/>
            <path class="cls-15" d="m110.77,26.96c2.9.55,4.78,4.22,5.32,7.91,0,0,0,0,0,.03.31,2.12,1.14,6.54,1.49,11.11-3.71,1.61-9.87.94-10.16.91-.22-4.18-1.35-9.93-1.74-11.9-.57-2.83-.67-7.05,3.25-8.01.19-.04.37-.08.54-.09.05,0,.11,0,.16,0,.39-.05.77-.03,1.13.05Z"/>
            <path class="cls-6" d="m103.98,70.93c1.55,1.5,10.5,1.49,16.86.37l.14,2.26c-.1.06-.21.12-.33.18-3.31,1.56-13.32.48-16.17.13h0c-.48-.05-.76-.09-.76-.09.14-.83.23-1.78.28-2.84Z"/>
            <path class="cls-23" d="m104.74,31.59c-.53,5.52.91,20.66.91,20.66-.52.29-1.14.56-1.84.82-.59-4.5-1.36-7.83-1.6-13.19-.31-7.44,3.63-11.57,3.63-11.57l.12.1c-.61.7-1.08,1.71-1.22,3.18Z"/>
            <path class="cls-4" d="m120.38,82.36c-6.37,1.12-15.31,1.14-16.86-.37-.03-.02-.05-.04-.07-.07-1.85-2.19-.92-18.64-.89-18.99,4.32-.02,10.38-.79,13.1-4.12,1.18-1.44,1.76-3.71,1.98-6.31h.05s.96.02,2.22,0c.8,0,1.71-.03,2.57-.09.05,0,.11,0,.16,0,1.21-.09,2.44-.28,3.41-.34.82-.05,1.45,0,1.73.27.59.6,1.73,24.91-1.31,27.88-.68.67-2.12,1.23-3.96,1.69-.66.16-1.38.31-2.12.44Z"/>
            <g>
              <path class="cls-20" d="m113.29,67.69c0,.13,0,.28-.02.42-.08.8-.57.8-1.37.8h-2.37s-.01.09-.01.13c0,.83.83,1.12,1.25,1.12.8,0,1.19-.64,1.74-.64.44,0,.52.35.52.68-.02.19-.07.33-.23.48-.58.64-1.39.99-2.34.99-1.67,0-2.53-1.21-2.53-2.72,0-1.75,1.21-3.6,3.04-3.6,1.51,0,2.31.96,2.31,2.34Zm-1.65.15c.01-.05.01-.1.01-.15,0-.57-.39-.84-.82-.84-.48,0-1.04.34-1.11.98h1.92Z"/>
              <path class="cls-20" d="m115.51,68.76c0,.75.5,1.32,1.16,1.32.25,0,.54-.06.8-.23.12-.08.28-.11.38-.11.33,0,.66.29.66.67-.03.39-.23.61-.51.79-.51.33-1.04.46-1.51.46-1.52,0-2.61-1.16-2.61-2.74,0-1.81,1.43-3.43,3.23-3.43.39,0,.85.04,1.26.24.3.15.51.4.51.69-.05.53-.38.82-.84.82-.31,0-.69-.18-1.09-.18-.92,0-1.45.93-1.45,1.71Z"/>
              <path class="cls-20" d="m124.27,68.14c0,1.81-1.12,3.51-3.03,3.51-1.61,0-2.38-1.26-2.38-2.7,0-1.82,1.21-3.58,3.03-3.58,1.6,0,2.38,1.34,2.38,2.77Zm-3.77.59c0,.68.24,1.47.88,1.47.9,0,1.24-1.17,1.24-1.84s-.24-1.52-.89-1.52c-.89,0-1.23,1.24-1.23,1.89Z"/>
            </g>
          </g>
          <path class="cls-7" d="m103.47,19.35c-.08-.12-.05-.3-.01-.44.07-.24.28-.28.51-.25.48.07.71.6.72,1.04,0,.31-.28.75-.65.56-.3-.16,0-.42-.15-.61-.07-.09-.19-.05-.28-.1-.11-.07-.12-.17-.15-.29"/>
          <path class="cls-7" d="m104.93,20.99c-.37.22-.78.36-.78.36,0,0,.7.92,1.21.71.51-.21-.44-1.07-.44-1.07Z"/>
        </g>
      </g>
      <path class="cls-11" d="m169.93,143.71H6.14c-2.03,0-3.69-1.66-3.69-3.69h0c0-2.03,1.66-3.69,3.69-3.69h163.78c2.03,0,3.69,1.66,3.69,3.69h0c0,2.03-1.66,3.69-3.69,3.69Z"/>
    </g>
  </g>
</svg>