<?xml version="1.0" encoding="UTF-8"?>
<svg xmlns="http://www.w3.org/2000/svg" xmlns:xlink="http://www.w3.org/1999/xlink" viewBox="0 0 176.07 149.23">
  <defs>
    <style>
      .cls-1 {
        fill: url(#linear-gradient-2);
      }

      .cls-2 {
        fill: #c95f5f;
      }

      .cls-3 {
        fill: #684cd8;
      }

      .cls-4 {
        fill: url(#New_Gradient_Swatch_6);
      }

      .cls-5 {
        fill: #eaad8f;
      }

      .cls-6 {
        fill: url(#linear-gradient-15);
      }

      .cls-7 {
        fill: #e9e5d9;
      }

      .cls-7, .cls-8, .cls-9 {
        mix-blend-mode: multiply;
      }

      .cls-10 {
        fill: url(#linear-gradient-14);
      }

      .cls-11 {
        fill: #d9e9f6;
      }

      .cls-12 {
        fill: url(#linear-gradient-6);
      }

      .cls-13 {
        fill: url(#New_Gradient_Swatch_9-3);
      }

      .cls-14 {
        fill: url(#New_Gradient_Swatch_6-2);
      }

      .cls-15 {
        fill: #ff8f8e;
      }

      .cls-16 {
        fill: #2f2f66;
      }

      .cls-17 {
        isolation: isolate;
      }

      .cls-18 {
        fill: #f0c6ae;
      }

      .cls-19 {
        fill: #d2e6ee;
      }

      .cls-20 {
        fill: #565588;
      }

      .cls-21 {
        fill: #2b2a40;
      }

      .cls-22 {
        fill: #afafef;
      }

      .cls-23 {
        fill: #59595b;
        mix-blend-mode: screen;
      }

      .cls-24 {
        fill: url(#linear-gradient-11);
      }

      .cls-25 {
        fill: url(#linear-gradient-10);
      }

      .cls-26 {
        fill: #ffd78b;
      }

      .cls-27 {
        fill: #76bdb2;
      }

      .cls-28 {
        fill: url(#New_Gradient_Swatch_9-2);
      }

      .cls-29 {
        fill: #d4e8ec;
      }

      .cls-8 {
        fill: #e5e5e6;
      }

      .cls-30 {
        fill: #b4cdd3;
      }

      .cls-31 {
        fill: url(#linear-gradient-5);
      }

      .cls-32 {
        fill: url(#New_Gradient_Swatch_3);
      }

      .cls-9 {
        fill: #cfd1d2;
      }

      .cls-33 {
        clip-path: url(#clippath);
      }

      .cls-34 {
        fill: url(#New_Gradient_Swatch_10);
      }

      .cls-35 {
        fill: none;
      }

      .cls-36 {
        fill: #f6b472;
      }

      .cls-37 {
        fill: url(#linear-gradient-7);
      }

      .cls-38 {
        fill: #868aeb;
      }

      .cls-39 {
        fill: url(#linear-gradient-9);
      }

      .cls-40 {
        fill: url(#New_Gradient_Swatch_9);
      }

      .cls-41 {
        fill: url(#New_Gradient_Swatch_9-5);
      }

      .cls-42 {
        fill: url(#linear-gradient-3);
      }

      .cls-43 {
        fill: url(#linear-gradient);
      }

      .cls-44 {
        fill: url(#New_Gradient_Swatch_9-4);
      }

      .cls-45 {
        fill: url(#linear-gradient-4);
      }

      .cls-46 {
        fill: #58a899;
      }

      .cls-47 {
        fill: url(#linear-gradient-8);
      }

      .cls-48 {
        fill: #90d3c6;
      }

      .cls-49 {
        fill: url(#linear-gradient-12);
      }

      .cls-50 {
        fill: url(#linear-gradient-13);
      }

      .cls-51 {
        fill: #32186a;
      }
    </style>
    <linearGradient id="New_Gradient_Swatch_10" data-name="New Gradient Swatch 10" x1="90.28" y1="-6.19" x2="90.28" y2="121.24" gradientUnits="userSpaceOnUse">
      <stop offset="0" stop-color="#efcf64"/>
      <stop offset=".37" stop-color="#e38378"/>
      <stop offset="1" stop-color="#4136eb"/>
    </linearGradient>
    <linearGradient id="linear-gradient" x1="-1927.45" y1="-215.38" x2="-1927.45" y2="-169.31" gradientTransform="translate(-1737.67 -251.65) rotate(-163.45) scale(1 -1)" gradientUnits="userSpaceOnUse">
      <stop offset="0" stop-color="#9398fb"/>
      <stop offset="1" stop-color="#8c00f9"/>
    </linearGradient>
    <linearGradient id="linear-gradient-2" x1="149.17" y1="79.57" x2="149.17" y2="143" gradientUnits="userSpaceOnUse">
      <stop offset="0" stop-color="#9776f0"/>
      <stop offset=".24" stop-color="#8a69f2"/>
      <stop offset=".68" stop-color="#694af9"/>
      <stop offset="1" stop-color="#4d2fff"/>
    </linearGradient>
    <linearGradient id="linear-gradient-3" x1="150.3" y1="94.29" x2="150.3" y2="143" gradientUnits="userSpaceOnUse">
      <stop offset="0" stop-color="#84acf8"/>
      <stop offset=".94" stop-color="#9579f0"/>
      <stop offset="1" stop-color="#9776f0"/>
    </linearGradient>
    <linearGradient id="linear-gradient-4" x1="111.43" y1="12.44" x2="111.43" xlink:href="#linear-gradient-2"/>
    <linearGradient id="linear-gradient-5" x1="113.74" y1="34.07" x2="113.74" xlink:href="#linear-gradient-3"/>
    <linearGradient id="linear-gradient-6" x1="28.72" y1="53.36" x2="28.72" xlink:href="#linear-gradient-2"/>
    <linearGradient id="linear-gradient-7" x1="28.7" y1="72.74" x2="28.7" xlink:href="#linear-gradient-3"/>
    <linearGradient id="linear-gradient-8" x1="13.17" y1="83.23" x2="13.17" xlink:href="#linear-gradient-2"/>
    <linearGradient id="linear-gradient-9" x1="11.87" y1="96.44" x2="11.87" xlink:href="#linear-gradient-3"/>
    <linearGradient id="linear-gradient-10" x1="136.63" y1="45.74" x2="136.63" xlink:href="#linear-gradient-2"/>
    <linearGradient id="linear-gradient-11" x1="137.24" y1="64.14" x2="137.24" xlink:href="#linear-gradient-3"/>
    <clipPath id="clippath">
      <polygon class="cls-35" points="92.31 29.49 91.25 32.58 90.55 35.29 90.55 35.33 94.42 35.34 104.74 35.38 104.74 35.34 108.51 33.53 108.28 28.74 92.31 29.49"/>
    </clipPath>
    <linearGradient id="linear-gradient-12" x1="101.45" y1="33.29" x2="108.36" y2="33.29" xlink:href="#linear-gradient-2"/>
    <linearGradient id="New_Gradient_Swatch_6" data-name="New Gradient Swatch 6" x1="92.3" y1="34.63" x2="98.55" y2="34.63" gradientUnits="userSpaceOnUse">
      <stop offset="0" stop-color="#df697b"/>
      <stop offset="1" stop-color="#be2773"/>
    </linearGradient>
    <linearGradient id="linear-gradient-13" x1="62.7" y1="70.31" x2="62.7" y2="71.87" xlink:href="#linear-gradient-3"/>
    <linearGradient id="New_Gradient_Swatch_6-2" data-name="New Gradient Swatch 6" x1="117.01" y1="71.82" x2="143.43" y2="71.82" xlink:href="#New_Gradient_Swatch_6"/>
    <linearGradient id="New_Gradient_Swatch_9" data-name="New Gradient Swatch 9" x1="78.53" y1="52.89" x2="72.55" y2="59.16" gradientUnits="userSpaceOnUse">
      <stop offset="0" stop-color="#efcf64"/>
      <stop offset="1" stop-color="#e49174"/>
    </linearGradient>
    <linearGradient id="New_Gradient_Swatch_9-2" data-name="New Gradient Swatch 9" x1="68.68" y1="47.76" x2="76.27" y2="47.76" xlink:href="#New_Gradient_Swatch_9"/>
    <linearGradient id="linear-gradient-14" x1="71.82" y1="25.91" x2="71.82" y2="31.83" xlink:href="#linear-gradient-3"/>
    <linearGradient id="New_Gradient_Swatch_9-3" data-name="New Gradient Swatch 9" x1="70.29" y1="55.42" x2="65.22" y2="63.38" xlink:href="#New_Gradient_Swatch_9"/>
    <linearGradient id="New_Gradient_Swatch_9-4" data-name="New Gradient Swatch 9" x1="61.41" y1="42.74" x2="71.81" y2="42.74" xlink:href="#New_Gradient_Swatch_9"/>
    <linearGradient id="linear-gradient-15" x1="66.38" y1="21.59" x2="66.38" y2="30.54" xlink:href="#linear-gradient-2"/>
    <linearGradient id="New_Gradient_Swatch_9-5" data-name="New Gradient Swatch 9" x1="57.19" y1="51.51" x2="69.28" y2="51.51" xlink:href="#New_Gradient_Swatch_9"/>
    <linearGradient id="New_Gradient_Swatch_3" data-name="New Gradient Swatch 3" x1="67.01" y1="39.12" x2="67.01" y2="88.79" gradientUnits="userSpaceOnUse">
      <stop offset="0" stop-color="#5b2a8d"/>
      <stop offset=".17" stop-color="#4a2785"/>
      <stop offset=".43" stop-color="#38247d"/>
      <stop offset=".7" stop-color="#2d2278"/>
      <stop offset="1" stop-color="#2a2277"/>
    </linearGradient>
  </defs>
  <g class="cls-17">
    <g id="Layer_2" data-name="Layer 2">
      <g id="OBJECTS">
        <g>
          <g>
            <circle class="cls-11" cx="111" cy="69.56" r="65.07" transform="translate(-16.67 98.86) rotate(-45)"/>
            <circle class="cls-11" cx="56.11" cy="85.74" r="56.11"/>
            <circle class="cls-11" cx="43.03" cy="42.65" r="31.17"/>
            <circle class="cls-11" cx="65.84" cy="17.36" r="8.98"/>
            <path class="cls-11" d="m81.24,4.49c0,2.48-2.01,4.49-4.49,4.49s-4.49-2.01-4.49-4.49,2.01-4.49,4.49-4.49,4.49,2.01,4.49,4.49Z"/>
          </g>
          <path class="cls-34" d="m62.7,140.08c-8.61.05-18.51-.16-26.39-4.11-7.59-3.8-13.39-12.64-17.29-19.89-7.97-14.82-15.57-30.3-2.1-44.47,3.91-4.11,8.47-7.57,12.22-11.82,3.74-4.23,6.42-9.24,6.55-14.97.14-6.08-2.14-12.16.83-17.94,4.02-7.82,15-8.81,22.72-8.79,14.13.04,29.32,5.3,42.97.46,9.07-3.22,16.55-7.35,26.45-6.03,12.22,1.64,24.14,9.99,31.43,19.69,4.61,6.13,7.34,13.34,6.42,21.09-.56,4.78-2.4,9.31-3.5,13.99-2.1,8.97,2.87,16.7,6.06,24.68,4.31,10.76,1.01,21.89-5.83,30.75-4.69,6.09-10.4,11.87-16.99,15.9-9.6,5.87-23.45,4.12-34.24,4.06-11.69-.07-23.33-1.4-34.97-2.36-4.38-.36-9.29-.26-14.34-.24Z"/>
          <g>
            <g>
              <path class="cls-43" d="m164.34,113.11c-.4-2.02-1.42-3.89-2.85-5.36-1.3-1.33-2.95-2.35-4.78-2.75.77,1.74,1.9,3.33,3.18,4.73,1.25,1.37,2.73,2.64,4.46,3.37Zm-9.81,13.99c-.62-1.77-1.71-3.4-3.22-4.54-.03,1.92.33,3.85.9,5.68.56,1.79,1.36,3.59,2.63,5,.51-2.02.37-4.18-.32-6.14Zm9.88-8.46c1.96.27,4.05-.25,5.66-1.23,2.07-1.25,3.55-2.81,4.92-4.89-1.98.1-3.92.93-5.55,1.97-1.84,1.16-3.57,2.49-5.03,4.16Zm-7.39,4.31c-.79-1.68-2.03-3.18-3.62-4.15.16,1.9.71,3.76,1.46,5.51.73,1.71,1.71,3.4,3.11,4.65.29-2.04-.07-4.15-.94-6.01Zm1.67-8.67c1.12,1.5,2.47,2.92,4.14,3.83-.2-2.06-1.04-4.03-2.32-5.65-1.17-1.46-2.73-2.64-4.52-3.22.6,1.82,1.58,3.51,2.71,5.04Zm3.12,10.79c1.91.52,4.05.27,5.78-.49,2.21-.97,3.88-2.32,5.52-4.21-1.98-.16-4.01.41-5.76,1.22-1.97.91-3.86,2.01-5.53,3.47Zm-5.1-5.07c.91,1.64,2.07,3.22,3.6,4.34.08-2.07-.5-4.14-1.57-5.91-.97-1.6-2.36-2.97-4.07-3.79.36,1.88,1.11,3.69,2.03,5.35Zm8.99-6.61c1.96.07,3.96-.65,5.46-1.78,1.85-1.39,3.38-3.09,4.37-5.31-1.94.29-3.78,1.31-5.28,2.49-1.69,1.33-3.27,2.81-4.55,4.6Zm.74-4.92c1.7-.37,3.02-1.51,4.14-2.65,1.31-1.34,2.25-3.26,2.69-5.17-1.57.69-2.79,1.96-3.88,3.17-1.2,1.33-2.22,2.96-2.95,4.65Zm4.3,17.7c-1.93-.36-4,0-5.8.62-2.04.7-4.01,1.59-5.81,2.88,1.83.7,3.96.67,5.74.09,2.2-.71,4.21-1.82,5.86-3.59Zm-7.71-22.55c-.94-1.11-2.26-2.21-3.86-2.64.56,1.58,1.5,3.03,2.49,4.24.95,1.17,2.14,2.38,3.59,3.11-.26-1.81-1.17-3.47-2.22-4.71Zm-6.86,30.62c1.77.89,3.92,1.07,5.77.66,2.37-.52,4.29-1.52,6.28-3.05-1.91-.55-4.02-.4-5.9.06-2.13.51-4.21,1.22-6.15,2.33Zm7.52-35.31c-1.07-1.04-2.26-1.7-3.3-1.91.49,1.1,1.29,2.27,2.33,3.35s2.14,1.86,3.16,2.23c-.34-1.3-1.24-2.74-2.18-3.66Zm.84-10.15c-.19,1.83-.09,3.73.21,5.51.3,1.72.69,3.5,1.38,5.13.02.04.04.08.05.13.01-.04.03-.09.04-.13.53-1.73.59-3.61.32-5.4-.28-1.85-.92-3.69-2.01-5.24Zm6.96,7.03c-.97.51-1.98,1.52-2.9,2.81-.83,1.15-1.59,2.6-1.99,3.98,1.02-.36,2.14-1.2,3.1-2.48.87-1.16,1.6-2.85,1.79-4.31Z"/>
              <path class="cls-20" d="m164.42,118.71c.07-.01.14-.03.21-.04h0s0,0,0,0c.23-.04.46-.09.68-.15.6-.14,1.21-.35,1.79-.58.59-.24,1.18-.53,1.76-.88.57-.34,1.14-.74,1.67-1.22-.54.46-1.11.83-1.69,1.14-.58.32-1.17.59-1.76.8-.59.21-1.2.38-1.78.5-.23.05-.47.09-.71.12-.06,0-.12.02-.18.03-.19.03-.38.05-.57.06.48-1.62.91-3.22,1.29-4.86.24-.06.48-.12.71-.19.03-.01.07-.02.1-.03h0c.26-.08.52-.16.78-.26.58-.21,1.17-.47,1.73-.77.56-.3,1.12-.65,1.66-1.05.54-.4,1.06-.85,1.54-1.38-.49.51-1.02.93-1.57,1.31-.54.38-1.11.7-1.67.98-.56.27-1.16.5-1.72.7-.28.09-.56.17-.84.25h-.03c-.21.06-.41.1-.62.15.32-1.49.57-3.02.74-4.54.19-.1.39-.21.58-.32h0c.22-.13.45-.27.67-.41.43-.29.86-.61,1.28-.96.41-.35.81-.73,1.19-1.14.38-.41.75-.85,1.08-1.34-.35.47-.73.89-1.12,1.27-.39.39-.8.75-1.22,1.07-.42.32-.85.62-1.29.88-.18.11-.36.21-.54.31-.2.1-.4.2-.6.3.21-1.89.32-3.8.32-5.7.11-.08.22-.17.32-.26.53-.44,1.05-.94,1.52-1.49.58-.68,1.55-2.29,1.55-2.29,0,0-1,1.57-1.59,2.23-.44.49-.91.93-1.4,1.32-.13.11-.27.21-.4.31,0-1.25-.02-1.87-.1-3.12-.07-1.18-.13-1.77-.27-2.96.05.5.07.75.1,1.24-.05-.5-.07-.74-.13-1.24.11,1.18.15,1.78.2,2.96.05,1.25.05,1.87.03,3.11-.13-.1-.27-.2-.4-.31-.49-.39-.96-.8-1.42-1.24-.61-.59-1.75-1.88-1.75-1.88,0,0,1.12,1.32,1.72,1.94.49.5,1.01.97,1.53,1.41.11.09.21.18.32.26-.05,1.89-.2,3.79-.45,5.66-.17-.14-.34-.28-.51-.42-.15-.13-.31-.27-.46-.41-.37-.33-.74-.69-1.1-1.05-.36-.36-.71-.74-1.04-1.12-.34-.38-.67-.78-.98-1.2.29.43.61.85.93,1.25.32.4.66.8,1.01,1.18.35.38.7.76,1.06,1.12.18.18.37.36.56.54h0c.16.15.32.3.48.44-.21,1.5-.49,3.02-.84,4.49-.17-.13-.34-.25-.51-.38l-.02-.02c-.22-.19-.46-.36-.68-.55-.45-.38-.91-.79-1.35-1.21-.43-.42-.86-.86-1.27-1.32-.41-.46-.8-.92-1.15-1.43.34.52.72,1.01,1.11,1.49.39.47.81.94,1.23,1.38.42.44.86.87,1.31,1.28.19.19.4.36.6.54h0s.05.05.08.07c.19.16.38.31.57.47-.42,1.62-.87,3.2-1.39,4.79-.14-.13-.29-.25-.42-.38-.04-.04-.09-.09-.13-.13-.17-.16-.34-.33-.51-.5-.41-.42-.83-.88-1.22-1.33-.39-.46-.77-.94-1.12-1.44-.35-.49-.7-1-.99-1.55.28.55.61,1.08.95,1.59.34.51.7,1.02,1.08,1.49.38.48.77.96,1.18,1.4.15.18.31.34.47.51h0s0,0,0,0c.05.05.1.1.15.16.15.16.31.31.47.47-.76,2.1-1.6,4.13-2.55,6.15-.08-.14-.17-.28-.25-.41-.1-.17-.2-.35-.3-.53-.24-.44-.47-.89-.69-1.35-.22-.46-.43-.93-.62-1.4-.19-.47-.38-.95-.53-1.45.13.5.3,1,.47,1.48.18.49.36.97.56,1.44.2.47.42.95.64,1.4.11.23.23.47.35.69h0c.07.14.15.28.23.42-.68,1.38-1.44,2.74-2.25,4.04-.09-.14-.19-.28-.28-.42l-.02-.02c-.15-.25-.31-.5-.46-.74-.3-.51-.6-1.05-.88-1.59-.27-.54-.53-1.1-.76-1.66-.23-.56-.46-1.14-.62-1.73.15.6.35,1.19.56,1.77.21.58.45,1.15.71,1.71.25.55.53,1.11.82,1.65.12.24.26.47.39.71h0s.03.06.05.09c.1.18.21.35.31.53-.93,1.43-1.87,2.79-2.89,4.15-.08-.14-.16-.29-.23-.43-.03-.06-.05-.11-.08-.17-.11-.21-.22-.43-.31-.64-.25-.54-.49-1.11-.71-1.67-.22-.56-.41-1.15-.58-1.73-.17-.59-.33-1.18-.43-1.8.08.62.22,1.23.37,1.82.15.6.32,1.2.52,1.78.2.58.4,1.16.65,1.72.08.22.18.43.28.64h0s0,0,0,0c.03.07.06.13.09.2.08.18.17.35.25.53-2.02,2.5-4.18,4.79-6.55,6.96.2.23.31.34.51.57,2.39-2.22,4.55-4.55,6.59-7.11.19.04.38.08.58.11.07.01.14.02.22.03h0s0,0,0,0c.23.03.46.07.7.08.62.06,1.26.06,1.9.03.64-.03,1.3-.12,1.96-.27.66-.14,1.32-.33,1.99-.62-.66.26-1.33.42-1.98.54-.65.12-1.3.18-1.93.19-.62.01-1.26-.03-1.86-.1-.24-.03-.48-.07-.71-.11-.06-.01-.12-.02-.18-.03-.16-.03-.32-.07-.48-.11,1.02-1.39,1.97-2.78,2.89-4.23.2.02.41.03.61.04.03,0,.07,0,.1,0h0c.27,0,.54.02.82,0,.62,0,1.26-.07,1.89-.17.63-.1,1.28-.25,1.92-.46.64-.2,1.28-.46,1.91-.81-.63.32-1.27.55-1.91.73-.64.18-1.28.31-1.9.38-.62.08-1.26.1-1.86.1-.29,0-.59-.02-.88-.04h-.03c-.17-.02-.34-.04-.51-.05.81-1.32,1.57-2.71,2.25-4.11.16-.02.31-.05.47-.08h0c.25-.05.51-.11.77-.17.5-.13,1.01-.29,1.52-.49.5-.19,1.01-.42,1.5-.68.49-.26.98-.56,1.46-.9-.48.32-.97.59-1.47.83-.5.24-1,.44-1.5.61-.5.17-1.01.31-1.51.41-.2.04-.41.08-.61.11-.16.02-.32.04-.48.06.95-2.05,1.78-4.11,2.53-6.24.22-.03.44-.06.66-.1Z"/>
            </g>
            <g>
              <path class="cls-1" d="m165.19,79.62c3.22,1.11-.44,22.24-10.98,63.38h-11.38c5.77-15.87,11.18-31.88,16.34-47.97.28-.88-.24-1.03-.56-.2-6.09,15.92-11.86,31.99-17.26,48.16h-9.31c18.71-43.42,29.76-64.55,33.16-63.38Z"/>
              <path class="cls-42" d="m158.61,94.84c.32-.84.84-.68.56.2-5.16,16.09-10.57,32.1-16.34,47.97h-1.49c5.41-16.18,11.17-32.24,17.26-48.16Z"/>
            </g>
            <g>
              <path class="cls-45" d="m124.8,143h-12.12l.1-4.51.21-7.93c.32-10.58.65-21.15.97-31.73.66-21.16,1.32-42.33,1.99-63.49.05-1.69-.5-1.66-.6-.03-1.28,21.12-2.29,42.29-2.99,63.46-.35,10.59-.6,21.18-.75,31.76l-.07,7.94v4.53h-13.48C106.76,46.21,112.58,12.29,116.51,12.44c3.93.15,7.08,34.19,8.28,130.56Z"/>
              <path class="cls-31" d="m115.35,35.3c.1-1.63.65-1.66.6.03-.66,21.16-1.32,42.33-1.99,63.49-.32,10.58-.65,21.16-.97,31.73l-.21,7.93-.1,4.51h-1.14v-4.53s.08-7.94.08-7.94c.15-10.59.4-21.18.75-31.76.7-21.17,1.71-42.33,2.99-63.46Z"/>
            </g>
            <g>
              <path class="cls-12" d="m37.31,143h-6.99c-.28-23.19-1.24-46.38-2.63-69.55-.06-.98-.6-.93-.59.02.21,23.18.97,46.39,2.37,69.52h-9.33c.86-53.74,3.85-89.56,6.37-89.64,2.67-.08,6.27,29.8,10.82,89.64Z"/>
              <path class="cls-37" d="m30.32,143h-.86c-1.39-23.14-2.16-46.34-2.37-69.52,0-.95.54-1.01.59-.02,1.39,23.17,2.35,46.36,2.63,69.55Z"/>
            </g>
            <g>
              <path class="cls-47" d="m24.39,143h-6.75c-3.18-15.46-6.89-30.82-10.94-46.08-.19-.72-.72-.57-.58.14,2.98,15.41,6.42,30.75,10.34,45.95H7C1.84,103.72.63,83.8,3.38,83.24c2.82-.58,9.83,19.34,21.01,59.76Z"/>
              <path class="cls-39" d="m17.64,143h-1.18c-3.92-15.2-7.35-30.54-10.34-45.95-.14-.71.39-.86.58-.14,4.05,15.27,7.76,30.62,10.94,46.08Z"/>
            </g>
            <g>
              <path class="cls-25" d="m156.69,45.76c2.89.92-4.22,33.33-21.34,97.24h-10.31c8.93-25.79,17.41-51.76,25.6-77.81.41-1.3-.12-1.43-.57-.19-9.19,25.84-18,51.87-26.37,78h-7.75c24.18-65.77,37.75-98.19,40.73-97.24Z"/>
              <path class="cls-24" d="m150.07,65c.44-1.24.97-1.11.57.19-8.19,26.05-16.68,52.02-25.6,77.81h-1.33c8.37-26.13,17.18-52.16,26.37-78Z"/>
            </g>
          </g>
          <g>
            <polygon class="cls-38" points="108.6 33.49 108.62 46.44 108.62 49.84 104.76 51.82 104.74 35.38 104.74 35.34 108.51 33.53 108.6 33.49"/>
            <polygon class="cls-20" points="94.42 33.49 94.42 33.45 90.55 35.29 90.55 35.33 94.42 35.34 104.74 35.38 104.74 35.34 108.51 33.53 94.42 33.49"/>
            <g class="cls-33">
              <g>
                <g>
                  <g>
                    <path class="cls-48" d="m92.41,36.84c-.04.1.02.2.1.27.08.07.17.12.23.21-.01.14-.19.2-.22.34-.02.1.05.19.11.26.12.13.24.25.31.41.07.16.07.36-.05.49.08.08.16.16.24.24.03.03.06.06.06.1,0,.03-.01.05-.03.07.41.18.86.29,1.33.32-.01-.1-.06-.2-.12-.25.07-.04.06-.18.01-.26-.04-.08-.11-.17-.09-.27.02-.13.15-.23.1-.35-.01-.03-.04-.04-.05-.07-.08-.12,0-.32-.05-.45-.02-.06-.07-.09-.1-.15-.08-.16.03-.37.14-.51-.09-.01-.16-.17-.12-.28.01-.03.03-.06.04-.09.01-.05,0-.1-.01-.14-.06-.25-.13-.5-.19-.75-.03-.12-.06-.25-.01-.35.03-.07.09-.11.11-.18.05-.18-.15-.35-.12-.54.03-.17.25-.24.23-.42-.02-.12-.14-.18-.14-.3,0-.12.12-.17.17-.27.09-.2-.11-.47-.02-.66.04-.1.15-.15.15-.26,0-.05-.02-.09-.03-.13-.04-.13-.01-.29.07-.39.02-.03.05-.05.06-.09.02-.07-.04-.13-.08-.2-.06-.12-.01-.29.05-.41.02-.04.04-.08.06-.12-.41.02-.8.1-1.17.23-.01.03-.03.05-.05.07-.04.05-.09.08-.12.13-.09.13-.06.31-.07.47-.01.16-.13.35-.28.31.04.09.09.18.1.28,0,.1-.02.21-.11.26-.04.02-.08.04-.11.07-.13.13.11.35.04.51-.04.1-.17.12-.24.2-.15.19.13.47.05.7-.03.09-.11.16-.15.25-.05.12,0,.28.12.35.04.02.1.04.12.08.04.09-.06.17-.13.24-.09.1-.12.25-.07.37.06.15.22.29.15.44-.04.1-.17.13-.21.23Z"/>
                    <path class="cls-48" d="m92.92,32.09c-1.26.66-2.12,1.98-2.12,3.5,0,1.34.67,2.53,1.69,3.24,0-.03,0-.07.01-.1.02-.12.01-.26-.09-.31-.03-.02-.07-.02-.1-.04-.09-.07.02-.22-.01-.33-.03-.1-.16-.14-.22-.22-.13-.16.03-.4-.02-.6-.04-.19-.25-.36-.17-.53.02-.04.05-.07.07-.1.08-.12.04-.28-.02-.42-.06-.13-.13-.27-.11-.42,0-.07.04-.13.04-.2,0-.09-.06-.18-.09-.27-.05-.15-.04-.33.05-.47.04-.06.08-.11.1-.18.02-.06.01-.13,0-.19-.03-.27-.03-.59.17-.77.06-.06.14-.1.17-.18.04-.12-.06-.25-.02-.38.04-.18.32-.22.35-.4,0-.06-.01-.13,0-.18.04-.1.18-.12.26-.2.06-.07.06-.16.06-.26Z"/>
                    <path class="cls-46" d="m92.49,38.84c.22.15.45.28.69.39.02-.02.03-.04.03-.07,0-.04-.03-.08-.06-.1-.08-.08-.16-.16-.24-.24.12-.12.12-.33.05-.49-.07-.16-.2-.28-.31-.41-.06-.07-.13-.16-.11-.26.03-.13.21-.2.22-.34-.06-.09-.15-.14-.23-.21-.08-.07-.14-.18-.1-.27.04-.1.16-.14.21-.23.07-.15-.09-.29-.15-.44-.05-.12-.02-.27.07-.37.07-.07.17-.15.13-.24-.02-.04-.08-.06-.12-.08-.12-.07-.17-.23-.12-.35.04-.09.12-.16.15-.25.07-.23-.21-.51-.05-.7.07-.08.2-.1.24-.2.07-.16-.16-.38-.04-.51.03-.03.08-.04.11-.07.08-.05.12-.16.11-.26-.01-.1-.06-.19-.1-.28.16.04.27-.15.28-.31.01-.16-.02-.34.07-.47.03-.05.08-.09.12-.13.02-.02.04-.05.05-.07-.16.06-.32.13-.47.21,0,.1,0,.19-.06.26-.07.08-.22.09-.26.2-.02.06,0,.12,0,.18-.03.18-.3.22-.35.4-.03.12.07.26.02.38-.03.08-.11.12-.17.18-.2.19-.21.5-.17.77,0,.07.02.13,0,.19-.02.06-.06.12-.1.18-.08.14-.1.32-.05.47.03.09.09.17.09.27,0,.07-.03.13-.04.2-.02.14.06.28.11.42.06.13.1.3.02.42-.02.03-.05.06-.07.1-.08.17.13.34.17.53.04.2-.11.44.02.6.07.08.2.12.22.22.03.11-.08.26.01.33.03.02.07.03.1.04.11.05.11.2.09.31,0,.03-.01.07-.01.1Z"/>
                    <path class="cls-46" d="m94.06,34.9c-.03.19.17.36.12.54-.02.07-.08.12-.11.18-.05.1-.02.24.01.35.06.25.13.5.19.75.01.05.02.1.01.14,0,.03-.03.06-.04.09-.04.11.02.26.12.28-.11.14-.23.34-.14.51.03.05.07.09.1.15.06.14-.03.34.05.45.02.02.04.04.05.07.05.11-.08.22-.1.35-.01.1.05.18.09.27.04.08.06.22-.01.26.07.05.11.15.12.25.08,0,.15,0,.23,0s.15,0,.23,0c.01-.1.06-.2.12-.25-.07-.04-.06-.18-.01-.26.04-.08.11-.17.09-.27-.02-.13-.15-.23-.1-.35.01-.03.04-.04.05-.07.08-.12,0-.32.05-.45.02-.06.07-.09.1-.15.08-.16-.03-.37-.14-.51.1-.01.16-.17.12-.28-.01-.03-.03-.06-.04-.09-.01-.05,0-.1.01-.14.06-.25.13-.5.19-.75.03-.12.06-.25.01-.35-.03-.07-.09-.11-.11-.18-.05-.18.15-.35.12-.54-.03-.17-.25-.24-.23-.42.01-.12.14-.18.14-.3,0-.12-.12-.17-.17-.27-.09-.2.11-.47.02-.66-.04-.1-.15-.15-.15-.26,0-.05.02-.09.03-.13.04-.13.01-.29-.07-.39-.02-.03-.05-.05-.06-.09-.02-.07.04-.13.08-.2.06-.12.01-.29-.05-.41-.02-.04-.04-.08-.06-.12-.06,0-.12,0-.18,0s-.12,0-.18,0c-.02.04-.04.08-.06.12-.06.13-.11.29-.05.41.03.06.09.12.08.2,0,.04-.04.06-.06.09-.08.1-.11.26-.07.39.01.04.03.08.03.13,0,.11-.1.17-.15.26-.09.2.12.47.02.66-.05.1-.17.15-.17.27,0,.12.12.18.14.3.02.17-.2.24-.23.42Z"/>
                    <path class="cls-48" d="m95.03,32.19c-.03.06-.09.12-.08.2,0,.04.04.06.06.09.08.1.11.26.07.39-.01.04-.03.08-.03.13,0,.11.1.17.15.26.09.2-.12.47-.02.66.05.1.17.15.17.27,0,.12-.12.18-.14.3-.02.17.19.24.23.42.03.19-.17.36-.12.54.02.07.08.12.11.18.05.1.02.24-.01.35-.06.25-.13.5-.19.75-.01.05-.02.1-.01.14,0,.03.03.06.04.09.04.11-.02.26-.12.28.11.14.23.34.14.51-.03.05-.07.09-.1.15-.06.14.03.34-.05.45-.02.02-.04.04-.05.07-.05.11.08.22.1.35.01.1-.05.18-.09.27-.04.08-.06.22.01.26-.07.06-.11.15-.12.25.47-.03.92-.14,1.34-.32-.02-.02-.03-.04-.03-.07,0-.04.03-.08.06-.1.08-.08.16-.16.24-.24-.12-.12-.12-.33-.05-.49.07-.16.2-.28.31-.41.07-.07.13-.16.11-.26-.03-.13-.21-.2-.22-.34.06-.09.15-.14.23-.21.08-.07.14-.18.1-.27-.04-.1-.17-.14-.21-.23-.07-.15.09-.29.15-.44.05-.12.02-.27-.07-.37-.07-.07-.17-.15-.13-.24.02-.04.07-.06.12-.08.12-.07.17-.23.12-.35-.04-.09-.12-.16-.15-.25-.07-.23.21-.51.05-.7-.07-.08-.2-.1-.24-.2-.07-.16.16-.38.04-.51-.03-.03-.08-.04-.11-.07-.08-.05-.12-.16-.1-.26,0-.1.06-.19.1-.28-.16.04-.27-.15-.28-.31-.01-.16.02-.34-.07-.47-.04-.05-.08-.09-.12-.13-.02-.02-.04-.05-.05-.07-.37-.13-.76-.22-1.17-.23.02.04.04.08.06.12.06.13.11.29.05.41Z"/>
                    <path class="cls-46" d="m96.27,32.09c.09.13.06.31.07.47.01.16.13.35.28.31-.04.09-.09.18-.1.28-.01.1.02.21.1.26.04.02.08.04.11.07.13.13-.11.35-.04.51.04.1.18.12.24.2.15.19-.13.47-.05.7.03.09.11.16.15.25.05.12,0,.28-.12.35-.04.02-.1.04-.12.08-.05.09.06.17.13.24.09.1.12.25.07.37-.06.15-.22.29-.15.44.04.1.17.13.21.23.04.1-.03.2-.1.27-.08.07-.17.12-.23.21.01.14.19.2.22.34.02.1-.05.19-.11.26-.12.13-.24.25-.31.41-.07.16-.07.36.05.49-.08.08-.16.16-.24.24-.03.03-.06.06-.06.1,0,.03.01.05.03.07.25-.1.48-.24.69-.39,0-.04,0-.07-.01-.1-.02-.12-.01-.26.09-.31.03-.02.07-.02.1-.04.09-.07-.02-.22.01-.33.03-.1.16-.14.22-.22.13-.16-.03-.4.02-.6.04-.19.25-.36.17-.53-.02-.04-.05-.07-.07-.1-.08-.12-.04-.28.02-.42.06-.13.13-.27.11-.42,0-.07-.04-.13-.04-.2,0-.09.05-.18.09-.27.05-.15.04-.33-.05-.47-.04-.06-.08-.11-.1-.18-.02-.06,0-.13,0-.19.03-.27.03-.59-.17-.77-.06-.06-.14-.1-.17-.18-.04-.12.06-.25.02-.38-.05-.18-.32-.22-.35-.4,0-.06.01-.13,0-.18-.04-.1-.18-.12-.26-.2-.06-.07-.06-.16-.06-.26-.15-.08-.31-.15-.47-.21.01.03.03.05.05.07.04.05.09.08.12.13Z"/>
                    <path class="cls-48" d="m98.69,35.6c0-1.52-.86-2.84-2.12-3.5,0,.1,0,.19.06.26.08.08.22.09.26.2.02.06,0,.12,0,.18.03.18.3.22.35.4.03.12-.07.26-.02.38.03.08.11.12.17.18.2.19.21.5.17.77,0,.07-.02.13,0,.19.02.06.06.12.1.18.08.14.1.32.05.47-.03.09-.09.17-.09.27,0,.07.03.13.04.2.02.14-.05.28-.11.42-.06.13-.1.3-.02.42.02.03.05.06.07.1.08.17-.13.34-.17.53-.04.2.11.44-.02.6-.07.08-.2.12-.22.22-.03.11.08.26-.01.33-.03.02-.07.03-.1.04-.11.05-.11.2-.09.31,0,.03.01.07.01.1,1.02-.71,1.69-1.9,1.69-3.24Z"/>
                  </g>
                  <path class="cls-46" d="m94.42,31.23c0-.13.06-.25.15-.34-.05-.09-.08-.2-.09-.31,0-.22.1-.45.29-.61.15-.13.36-.23.6-.27l.03.19c-.21.04-.38.12-.51.23-.14.13-.23.3-.22.47,0,.07.02.13.05.19.04-.02.07-.03.11-.04.11-.03.21-.02.28.03.05.04.09.09.11.16.01.06,0,.11-.03.16-.07.1-.21.11-.32.07-.07-.02-.13-.06-.18-.11-.05.06-.08.13-.08.2,0,.15.09.31.23.36l-.07.18c-.22-.09-.36-.32-.35-.55Zm.46-.32s-.02,0-.03.01c.03.02.06.04.09.05.04.02.09.01.1,0,0,0,0,0,0-.01,0-.01-.01-.03-.02-.04-.02-.01-.04-.02-.07-.02-.02,0-.04,0-.06,0Z"/>
                </g>
                <g>
                  <g>
                    <path class="cls-48" d="m97.42,37.37c-.04.1.02.2.1.27.08.07.17.12.23.21-.01.14-.19.2-.22.34-.02.1.05.19.11.26.12.13.24.25.31.41.07.16.07.36-.05.49.08.08.16.16.24.24.03.03.06.06.06.1,0,.03-.01.05-.03.07.41.18.86.29,1.33.32-.01-.1-.06-.2-.12-.25.07-.04.06-.18.01-.26-.04-.08-.11-.17-.09-.27.02-.13.15-.23.1-.35-.01-.03-.04-.04-.05-.07-.08-.12,0-.32-.05-.45-.02-.06-.07-.09-.1-.15-.08-.16.03-.37.14-.51-.09-.01-.16-.17-.12-.28.01-.03.03-.06.04-.09.01-.05,0-.1-.01-.14-.06-.25-.13-.5-.19-.75-.03-.12-.06-.25-.01-.35.03-.07.09-.11.11-.18.05-.18-.15-.35-.12-.54.03-.17.25-.24.23-.42-.02-.12-.14-.18-.14-.3,0-.12.12-.17.17-.27.09-.2-.11-.47-.02-.66.04-.1.15-.15.15-.26,0-.05-.02-.09-.03-.13-.04-.13-.01-.29.07-.39.02-.03.05-.05.06-.09.02-.07-.04-.13-.08-.2-.06-.12-.01-.29.05-.41.02-.04.04-.08.06-.12-.41.02-.8.1-1.17.23-.01.03-.03.05-.05.07-.04.05-.09.08-.12.13-.09.13-.06.31-.07.47-.01.16-.13.35-.28.31.04.09.09.18.1.28,0,.1-.02.21-.11.26-.04.02-.08.04-.11.07-.13.13.11.35.04.51-.04.1-.17.12-.24.2-.15.19.13.47.05.7-.03.09-.11.16-.15.25-.05.12,0,.28.12.35.04.02.1.04.12.08.04.09-.06.17-.13.24-.09.1-.12.25-.07.37.06.15.22.29.15.44-.04.1-.17.13-.21.23Z"/>
                    <path class="cls-48" d="m97.92,32.63c-1.26.66-2.12,1.98-2.12,3.5,0,1.34.67,2.53,1.69,3.24,0-.03,0-.07.01-.1.02-.12.01-.26-.09-.31-.03-.02-.07-.02-.1-.04-.09-.07.02-.22-.01-.33-.03-.1-.16-.14-.22-.22-.13-.16.03-.4-.02-.6-.04-.19-.25-.36-.17-.53.02-.04.05-.07.07-.1.08-.12.04-.28-.02-.42-.06-.13-.13-.27-.11-.42,0-.07.04-.13.04-.2,0-.09-.06-.18-.09-.27-.05-.15-.04-.33.05-.47.04-.06.08-.11.1-.18.02-.06.01-.13,0-.19-.03-.27-.03-.59.17-.77.06-.06.14-.1.17-.18.04-.12-.06-.25-.02-.38.04-.18.32-.22.35-.4,0-.06-.01-.13,0-.18.04-.1.18-.12.26-.2.06-.07.06-.16.06-.26Z"/>
                    <path class="cls-46" d="m97.49,39.37c.22.15.45.28.69.39.02-.02.03-.04.03-.07,0-.04-.03-.08-.06-.1-.08-.08-.16-.16-.24-.24.12-.12.12-.33.05-.49-.07-.16-.2-.28-.31-.41-.06-.07-.13-.16-.11-.26.03-.13.21-.2.22-.34-.06-.09-.15-.14-.23-.21-.08-.07-.14-.18-.1-.27.04-.1.16-.14.21-.23.07-.15-.09-.29-.15-.44-.05-.12-.02-.27.07-.37.07-.07.17-.15.13-.24-.02-.04-.08-.06-.12-.08-.12-.07-.17-.23-.12-.35.04-.09.12-.16.15-.25.07-.23-.21-.51-.05-.7.07-.08.2-.1.24-.2.07-.16-.16-.38-.04-.51.03-.03.08-.04.11-.07.08-.05.12-.16.11-.26-.01-.1-.06-.19-.1-.28.16.04.27-.15.28-.31.01-.16-.02-.34.07-.47.03-.05.08-.09.12-.13.02-.02.04-.05.05-.07-.16.06-.32.13-.47.21,0,.1,0,.19-.06.26-.07.08-.22.09-.26.2-.02.06,0,.12,0,.18-.03.18-.3.22-.35.4-.03.12.07.26.02.38-.03.08-.11.12-.17.18-.2.19-.21.5-.17.77,0,.07.02.13,0,.19-.02.06-.06.12-.1.18-.08.14-.1.32-.05.47.03.09.09.17.09.27,0,.07-.03.13-.04.2-.02.14.06.28.11.42.06.13.1.3.02.42-.02.03-.05.06-.07.1-.08.17.13.34.17.53.04.2-.11.44.02.6.07.08.2.12.22.22.03.11-.08.26.01.33.03.02.07.03.1.04.11.05.11.2.09.31,0,.03-.01.07-.01.1Z"/>
                    <path class="cls-46" d="m99.06,35.44c-.03.19.17.36.12.54-.02.07-.08.12-.11.18-.05.1-.02.24.01.35.06.25.13.5.19.75.01.05.02.1.01.14,0,.03-.03.06-.04.09-.04.11.02.26.12.28-.11.14-.23.34-.14.51.03.05.07.09.1.15.06.14-.03.34.05.45.02.02.04.04.05.07.05.11-.08.22-.1.35-.01.1.05.18.09.27.04.08.06.22-.01.26.07.05.11.15.12.25.08,0,.15,0,.23,0s.15,0,.23,0c.01-.1.06-.2.12-.25-.07-.04-.06-.18-.01-.26.04-.08.11-.17.09-.27-.02-.13-.15-.23-.1-.35.01-.03.04-.04.05-.07.08-.12,0-.32.05-.45.02-.06.07-.09.1-.15.08-.16-.03-.37-.14-.51.1-.01.16-.17.12-.28-.01-.03-.03-.06-.04-.09-.01-.05,0-.1.01-.14.06-.25.13-.5.19-.75.03-.12.06-.25.01-.35-.03-.07-.09-.11-.11-.18-.05-.18.15-.35.12-.54-.03-.17-.25-.24-.23-.42.01-.12.14-.18.14-.3,0-.12-.12-.17-.17-.27-.09-.2.11-.47.02-.66-.04-.1-.15-.15-.15-.26,0-.05.02-.09.03-.13.04-.13.01-.29-.07-.39-.02-.03-.05-.05-.06-.09-.02-.07.04-.13.08-.2.06-.12.01-.29-.05-.41-.02-.04-.04-.08-.06-.12-.06,0-.12,0-.18,0s-.12,0-.18,0c-.02.04-.04.08-.06.12-.06.13-.11.29-.05.41.03.06.09.12.08.2,0,.04-.04.06-.06.09-.08.1-.11.26-.07.39.01.04.03.08.03.13,0,.11-.1.17-.15.26-.09.2.12.47.02.66-.05.1-.17.15-.17.27,0,.12.12.18.14.3.02.17-.2.24-.23.42Z"/>
                    <path class="cls-48" d="m100.04,32.72c-.03.06-.09.12-.08.2,0,.04.04.06.06.09.08.1.11.26.07.39-.01.04-.03.08-.03.13,0,.11.1.17.15.26.09.2-.12.47-.02.66.05.1.17.15.17.27,0,.12-.12.18-.14.3-.02.17.19.24.23.42.03.19-.17.36-.12.54.02.07.08.12.11.18.05.1.02.24-.01.35-.06.25-.13.5-.19.75-.01.05-.02.1-.01.14,0,.03.03.06.04.09.04.11-.02.26-.12.28.11.14.23.34.14.51-.03.05-.07.09-.1.15-.06.14.03.34-.05.45-.02.02-.04.04-.05.07-.05.11.08.22.1.35.01.1-.05.18-.09.27-.04.08-.06.22.01.26-.07.06-.11.15-.12.25.47-.03.92-.14,1.34-.32-.02-.02-.03-.04-.03-.07,0-.04.03-.08.06-.1.08-.08.16-.16.24-.24-.12-.12-.12-.33-.05-.49.07-.16.2-.28.31-.41.07-.07.13-.16.11-.26-.03-.13-.21-.2-.22-.34.06-.09.15-.14.23-.21.08-.07.14-.18.1-.27-.04-.1-.17-.14-.21-.23-.07-.15.09-.29.15-.44.05-.12.02-.27-.07-.37-.07-.07-.17-.15-.13-.24.02-.04.07-.06.12-.08.12-.07.17-.23.12-.35-.04-.09-.12-.16-.15-.25-.07-.23.21-.51.05-.7-.07-.08-.2-.1-.24-.2-.07-.16.16-.38.04-.51-.03-.03-.08-.04-.11-.07-.08-.05-.12-.16-.1-.26,0-.1.06-.19.1-.28-.16.04-.27-.15-.28-.31-.01-.16.02-.34-.07-.47-.04-.05-.08-.09-.12-.13-.02-.02-.04-.05-.05-.07-.37-.13-.76-.22-1.17-.23.02.04.04.08.06.12.06.13.11.29.05.41Z"/>
                    <path class="cls-46" d="m101.28,32.62c.09.13.06.31.07.47.01.16.13.35.28.31-.04.09-.09.18-.1.28-.01.1.02.21.1.26.04.02.08.04.11.07.13.13-.11.35-.04.51.04.1.18.12.24.2.15.19-.13.47-.05.7.03.09.11.16.15.25.05.12,0,.28-.12.35-.04.02-.1.04-.12.08-.05.09.06.17.13.24.09.1.12.25.07.37-.06.15-.22.29-.15.44.04.1.17.13.21.23.04.1-.03.2-.1.27-.08.07-.17.12-.23.21.01.14.19.2.22.34.02.1-.05.19-.11.26-.12.13-.24.25-.31.41-.07.16-.07.36.05.49-.08.08-.16.16-.24.24-.03.03-.06.06-.06.1,0,.03.01.05.03.07.25-.1.48-.24.69-.39,0-.04,0-.07-.01-.1-.02-.12-.01-.26.09-.31.03-.02.07-.02.1-.04.09-.07-.02-.22.01-.33.03-.1.16-.14.22-.22.13-.16-.03-.4.02-.6.04-.19.25-.36.17-.53-.02-.04-.05-.07-.07-.1-.08-.12-.04-.28.02-.42.06-.13.13-.27.11-.42,0-.07-.04-.13-.04-.2,0-.09.05-.18.09-.27.05-.15.04-.33-.05-.47-.04-.06-.08-.11-.1-.18-.02-.06,0-.13,0-.19.03-.27.03-.59-.17-.77-.06-.06-.14-.1-.17-.18-.04-.12.06-.25.02-.38-.05-.18-.32-.22-.35-.4,0-.06.01-.13,0-.18-.04-.1-.18-.12-.26-.2-.06-.07-.06-.16-.06-.26-.15-.08-.31-.15-.47-.21.01.03.03.05.05.07.04.05.09.08.12.13Z"/>
                    <path class="cls-48" d="m103.7,36.13c0-1.52-.86-2.84-2.12-3.5,0,.1,0,.19.06.26.08.08.22.09.26.2.02.06,0,.12,0,.18.03.18.3.22.35.4.03.12-.07.26-.02.38.03.08.11.12.17.18.2.19.21.5.17.77,0,.07-.02.13,0,.19.02.06.06.12.1.18.08.14.1.32.05.47-.03.09-.09.17-.09.27,0,.07.03.13.04.2.02.14-.05.28-.11.42-.06.13-.1.3-.02.42.02.03.05.06.07.1.08.17-.13.34-.17.53-.04.2.11.44-.02.6-.07.08-.2.12-.22.22-.03.11.08.26-.01.33-.03.02-.07.03-.1.04-.11.05-.11.2-.09.31,0,.03.01.07.01.1,1.02-.71,1.69-1.9,1.69-3.24Z"/>
                  </g>
                  <path class="cls-46" d="m99.43,31.76c0-.13.06-.25.15-.34-.05-.09-.08-.2-.09-.31,0-.22.1-.45.29-.61.15-.13.36-.23.6-.27l.03.19c-.21.04-.38.12-.51.23-.14.13-.23.3-.22.47,0,.07.02.13.05.19.04-.02.07-.03.11-.04.11-.03.21-.02.28.03.05.04.09.09.11.16.01.06,0,.11-.03.16-.07.1-.21.11-.32.07-.07-.02-.13-.06-.18-.11-.05.06-.08.13-.08.2,0,.15.09.31.23.36l-.07.18c-.22-.09-.36-.32-.35-.55Zm.46-.32s-.02,0-.03.01c.03.02.06.04.09.05.04.02.09.01.1,0,0,0,0,0,0-.01,0-.01-.01-.03-.02-.04-.02-.01-.04-.02-.07-.02-.02,0-.04,0-.06,0Z"/>
                </g>
                <g>
                  <path class="cls-49" d="m106.95,30.3c.01-.15-.02-.3-.09-.44-.21-.42-.72-.59-1.14-.38-.19.1-.33.26-.4.44,0-.02-.01-.03-.02-.05-.2-.39-.67-.55-1.07-.35-.39.2-.55.67-.36,1.06-.34-.23-.8-.28-1.2-.08-.58.29-.82,1-.53,1.58.06.12.14.22.23.31-.1.02-.21.05-.3.1-.57.28-.79.97-.51,1.54.28.57.97.79,1.54.51.05-.02.09-.05.13-.08.24.23.55.42.93.56.28.11.58.18.86.26.1.02.19.05.29.08.04.06.09.11.11.16.11.17.23.34.35.5.24.33.5.64.78.94.08.09.18.18.3.2.12.02.24-.04.34-.09.26-.13.52-.27.78-.4.16-.08.33-.18.38-.36.04-.14-.03-.29-.1-.42-.31-.61-.66-1.21-1.04-1.78.12-.81.1-1.64-.04-2.44.12,0,.25-.02.36-.07.35-.18.49-.6.32-.96-.17-.33-.56-.48-.9-.34Zm-1.82,4.62s0,0,0,0c0,0,0,0-.01,0-.28-.07-.54-.14-.8-.24.04-.01.08-.03.12-.05.22-.11.37-.29.45-.5,0,0,.01,0,.02.01.25.17.33.49.22.77Zm.75-1.1c.04.21-.19.37-.38.26-.19-.12-.38-.24-.56-.37,0-.04-.01-.08-.02-.12.2.15.48.18.72.06.07-.03.12-.07.17-.12.02.1.04.2.06.3Zm.98.02c-.01.1-.08.19-.17.23h0c-.17.08-.37-.03-.4-.22-.05-.31-.12-.62-.23-.92.11-.01.21-.04.31-.1.25-.12.42-.34.5-.58.06.52.05,1.06,0,1.58Z"/>
                  <path class="cls-48" d="m106.41,36.43c.09.12.17.23.29.32.11.09.26.15.4.13s.28-.13.3-.27c.02-.14-.06-.27-.15-.38-.34-.45-.74-.85-1.2-1.16-.09-.06-.18-.12-.29-.14-.5-.08-.1.43,0,.58.21.3.43.61.64.91Z"/>
                  <path class="cls-8" d="m107.88,36.3s.05.09.1.11c.07.04.16,0,.21-.06.04-.06.05-.15.03-.23s-.06-.14-.1-.21c-.26-.44-.52-.87-.78-1.31-.07-.12-.2-.31-.38-.24-.14.05-.11.23-.06.33.17.35.42.69.62,1.02.12.2.24.39.36.59Z"/>
                  <path class="cls-8" d="m105.85,32.34c.25-.02.5-.1.66-.29.16-.19.18-.5,0-.67-.08-.07-.19-.11-.29-.07-.11.04-.16.16-.23.25-.12.14-.29.22-.45.31s-.31.23-.32.42c0,.05.01.15.06.18.05.02.09-.03.14-.05.13-.06.29-.06.43-.07Z"/>
                  <path class="cls-8" d="m106.48,30.51c.05-.11.12-.21.12-.33,0-.19-.16-.35-.34-.38s-.37.05-.5.19c-.08.09-.15.21-.11.33.03.1.13.15.18.24.05.08.05.18.1.26.05.09.15.15.25.16.09,0,.22-.04.25-.13.01-.04,0-.1,0-.15.01-.06.04-.12.06-.18Z"/>
                  <path class="cls-23" d="m102.27,32.88c.2.04.3.33.24.63-.07.3-.28.51-.48.47-.2-.04-.3-.33-.24-.63.07-.3.28-.51.48-.47Z"/>
                  <path class="cls-23" d="m102.79,30.85c.2.04.3.33.24.63-.07.3-.28.51-.48.47-.2-.04-.3-.33-.24-.63.07-.3.28-.51.48-.47Z"/>
                </g>
                <g>
                  <path class="cls-46" d="m99.31,32.76s-.49-.64-1.31.26c0,0,.66.5,1.31-.26Z"/>
                  <path class="cls-27" d="m99,32.12s-.92-.13-1.09.9c0,0,.98-.05,1.09-.9Z"/>
                  <path class="cls-48" d="m98.35,31.65s-.72.5-.33,1.18c0,0,.68-.64.33-1.18Z"/>
                  <path class="cls-4" d="m98.26,32.84c.4.59.63,1.14-1,2.25-1.63,1.11-4.51,2.37-4.92,1.77-.4-.59,1.83-2.81,3.46-3.92,1.63-1.11,2.05-.69,2.46-.1Z"/>
                  <path class="cls-8" d="m95.4,35.48c-1.14.78-2.28,1.27-3.06,1.37,0,0,0,0,0,.01.4.59,3.28-.66,4.92-1.77,1.63-1.11,1.4-1.65,1-2.25-.08-.12-.16-.23-.26-.33-.02.7-1.07,1.92-2.61,2.97Z"/>
                  <g>
                    <path class="cls-9" d="m97.41,34.05c-.28-.2-.53-.47-.71-.76l-.1.06c.19.31.44.59.74.8l.07-.1Z"/>
                    <path class="cls-9" d="m95.59,33.08c.12.18.24.36.37.53l.09-.07c-.13-.17-.25-.35-.37-.53-.03.02-.07.05-.1.07Z"/>
                    <path class="cls-9" d="m96.82,32.37c.12.2.25.38.4.56l.09-.08c-.14-.17-.27-.34-.38-.52-.04.01-.08.03-.11.04Z"/>
                    <path class="cls-2" d="m93.72,36.27c-.34-.14-.63-.4-.82-.71-.03.03-.05.07-.08.1.21.32.5.58.85.72l.05-.11Z"/>
                    <path class="cls-9" d="m94.46,33.99c.11.19.23.37.37.53l.09-.08c-.14-.17-.26-.35-.37-.54-.03.03-.06.05-.09.08Z"/>
                    <path class="cls-9" d="m93.93,35.21l.06-.1c-.14-.09-.27-.21-.37-.35-.03.03-.06.06-.08.09.11.14.24.27.39.36Z"/>
                  </g>
                </g>
              </g>
            </g>
            <polygon class="cls-50" points="59.85 70.31 65.66 70.31 65.67 71.87 59.73 71.87 59.85 70.31"/>
            <path class="cls-22" d="m104.74,35.38l-10.32-.04h-3.87s0,13.88,0,13.88c.3-.38.74-.58.95-.37.22.22.18.75.2,1.03.02.47.01.97.11,1.43.1.43.25.51.68.55.95.08,1.96-.04,2.92-.07.93-.03,1.87-.06,2.8-.05.65,0,1.3.02,1.95.02,1.15,0,2.29.05,3.44.05h1.17l-.02-16.44Z"/>
            <g>
              <path class="cls-18" d="m125.96,44.16c3-.56,6.9.66,6.29,8.59-.61,7.93-2.82,16.57-5.44,14.17-2.63-2.39-4.35-4.93-3.57-12.81.79-7.88,2.72-9.95,2.72-9.95Z"/>
              <path class="cls-16" d="m133.02,139.82s6.23-.1,9.9-1.21c.16,1.7.24,2.8.19,2.97-.28.86-10.21,2.27-10.94.77-.31-.64.18-1.63.84-2.54l.02.02Z"/>
              <path class="cls-18" d="m130.18,100.81c3.48.07,7.18-.6,9.75-1.27-.05.84-.42,7.13-.17,10.66.23,3.08,2.46,21.18,3.16,28.4-3.67,1.11-9.9,1.21-9.9,1.21l-.02-.02c.85-1.19,1.98-2.23,1.98-2.23,0,0-2.96-15.61-4.17-20.73-1.17-4.96-.86-15.42-.84-16.04.07,0,.14,0,.21,0Z"/>
              <path class="cls-16" d="m127.46,142.48s-10.58,1.26-11.65-.36c-.2-.3.42-1.23,1.19-2.17.8.05,9,.46,10.35-.08.03.85.08,1.73.12,2.61Z"/>
              <path class="cls-36" d="m125.36,88.09c-1.84-.17-5.25-3.77-5.25-3.77h0s.06-.5.22-1.06c.12-.45.33-.96.61-1.28.08-.07.19-.13.36-.18,2.01-.66,10.56-.14,11.32,1.47.02.05.05.12.07.18.14.41.23,1.02.28,1.72h-.02s-5.76,3.1-7.59,2.92Z"/>
              <path class="cls-18" d="m120.11,99.1c2.49.81,6.13,1.57,9.64,1.69-.5,1.3-3.59,10.54-2.4,39.08-1.34.54-9.55.12-10.35.08.97-1.21,2.15-2.44,2.15-2.44-2.65-17.56.59-36.31.96-38.41Z"/>
              <path class="cls-5" d="m124.64,45.29c-.28.53-1.19,2.26-2.21,4.12.18-.7.84-2.86,2.21-4.12Z"/>
              <path class="cls-36" d="m120.74,62.99c-.04.91-.38,13.98-.41,18.84,0,.53,0,1.01,0,1.43.12-.45.33-.96.61-1.28.08-.07.19-.13.36-.18h0c0-.87,0-2.25.04-3.8.11-4.73.39-11.28.39-11.28v-4.77c-.33.36-.66.72-1,1.05Z"/>
              <path class="cls-26" d="m120.63,91.71c-1.35-1.06-.56-7.09-.52-7.39,0,0,3.41,3.6,5.25,3.77,1.83.18,7.59-2.92,7.59-2.92h.02c0,.19,0,.39,0,.6.04,2.65-.5,6.26-1.2,6.97-1,.99-9.77.06-11.15-1.03Z"/>
              <path class="cls-5" d="m123.89,45.74c-1.6,2.27-6.72,9.45-7.77,9.91-1.25.52-8.29-3.22-9.12-3.62-.35-.18-.53-.57-.64-1.04l-1.62.83h-1.74l-1.44,1.57h-1.12s4.03,1.88,5.34,3.24c1.32,1.36,4.98,4.25,4.98,4.25l-.02.05c.97.35,1.81.52,2.41.45,3.29-.41,6.68-6.79,8-8.77.38-.59,1.01-1.66,1.69-2.87l-.06-.03s.29-1.92,1.1-3.97Z"/>
              <path class="cls-18" d="m96.71,48.65c.96-.79,4.84,2.56,4.84,2.56,0,0-.36-2.44.25-2.56.62-.13,1.17.66,1.54,1.86.18.6.28,1.09.36,1.46.09.38.15.63.27.76.2.18,7.72,6.98,9.31,6.7,3.72-.65,11.19-13.93,11.45-14.41.66-.62,1.52-.98,2.58-.79,1.88.35,2.23,3.46,2.29,6.27.02,1.11-.16,2.8-.47,4.46-.44.75-10.19,12.05-13.89,12.78-8.06,1.57-11.49-9.86-14.27-11.29-.66-.34-2.42-1.2-2.81-1.49-.6-.45-1.06-1.23-1.38-2.1-.11-.28-.19-.57-.26-.87-.09-.33-.16-.68-.18-.99-.14-1.07-.03-2,.37-2.32Z"/>
              <path class="cls-14" d="m142.69,88.88c-.24-5.73-2.11-10.25-3.5-13.38-1.38-3.14-1.27-7-1.08-12.48.18-5.48-.65-10.57-2.09-15.28-.46-1.45-1.14-2.54-2-3.29-.51-.46-1.06-.8-1.67-1.06-.91-.37-1.93-.55-3-.55-1,.21-2.66.52-3.8.66-1.6.77-2.69,2.59-3.38,4.33h-.01c-.35.87-.6,1.71-.77,2.4.8-1.17,1.56-2.32,2.05-3.09.17-.3.36-.59.57-.88,0-.02.02-.03.02-.03.26-.36.55-.71.87-1,.72-.67,1.4-1.01,2.56-.8,2.06.38,2.44,3.77,2.51,6.84.02,1.21-.17,3.06-.51,4.87-.49,2.8-1.24,5.64-1.96,5.74-1.73.25-2.04-1.67-2.12-2.56-.77.81-2.03,2.09-2.66,2.74.23,3.67-.42,12.14-1.37,15.94-.04,1.56-.05,2.93-.04,3.8h0c2.01-.66,10.56-.14,11.32,1.47.02.05.05.12.07.19.14.41.23,1.01.27,1.71.01.2.01.4.01.6.04,2.65-.5,6.26-1.2,6.97-.99.99-9.77.06-11.15-1.03-1.35-1.05-.56-7.09-.52-7.39h0s.06-.5.22-1.06c-.01-.42-.01-.9,0-1.43-1.11,4.16-3.87,14.92-3.22,15.84.27.39,1.38.92,3,1.43,2.49.81,6.14,1.58,9.64,1.69.08.01.14.01.22.01.07.01.14.01.21.01,3.49.07,7.18-.59,9.75-1.27,1.8-.47,3.06-.94,3.3-1.17.6-.57-.3-3.77-.54-9.49Z"/>
              <path class="cls-18" d="m119.88,37.95l1.83-.39s.93,3.31,1.62,5.23c-.48.11-1.04.13-1.41-.12-.77-.51-1.89-4.22-2.04-4.72Z"/>
              <path class="cls-36" d="m132.92,84.36c.34-4.01,1.89-15.3,1.89-25.35,0-3.81-.22-7.45-.83-10.48-.61-3.02-1.58-5.45-3.22-6.82-.21-.18-.53-.15-.7.07-.18.21-.15.53.07.7,1.33,1.09,2.3,3.32,2.88,6.24.58,2.92.81,6.51.81,10.28,0,9.97-1.54,21.2-1.89,25.26-.02.28.18.52.46.54.28.02.52-.18.54-.46h0Z"/>
              <path class="cls-16" d="m118.81,38.19s-1.14-6.15,4.32-7.56c5.45-1.42,7.77,3.1,8.58,5.63s1.35,5.61,1.35,5.61c0,0-.75,1.19-7.94,2.23-.57.07-1.01.09-1.15.05-.13-.05-.36-.59-.64-1.35-.69-1.92-1.62-5.23-1.62-5.23l-1.83.39-1.07.24Z"/>
            </g>
            <path class="cls-5" d="m81.19,58.42c-2.65.59-4.87,1.1-7.04.98h0c1.36-.66,3.83-3.63,4.48-4.51h0s1.07.52,4.58-.46c3.24-.89,6-2.96,6.42-3.28-.18.53-.33,1.09-.42,1.62-.34,1.94-4.39,4.84-8.03,5.65Z"/>
            <path class="cls-40" d="m76.49,52.89c.63,0,2.48,1.38,2.26,1.79-.01.04-.07.11-.13.21-.65.88-3.12,3.85-4.48,4.5h0c-.26,0-.51-.02-.77-.05-.04-.99-.09-1.94-.13-2.87.39-.53,2.24-2.98,3.03-3.48.09-.06.16-.1.22-.1Z"/>
            <path class="cls-18" d="m95.77,56.24c.32-.21.62-.45.89-.74.63-.66,1.19-1.53,1.37-2.45.16-.8.19-3.03-1.02-2.96-1.05.06-2.19.76-3.15,1.15-.66.27-2.16.98-1.97-.3.09-.6.32-1.99-.48-2.22-.28-.08-.57.12-.87.5-.34.45-.67,1.16-.91,1.93-.18.53-.33,1.09-.42,1.62-.34,1.94-4.39,4.84-8.03,5.65-2.65.59-4.87,1.1-7.04.98-.26-.01-.51-.03-.77-.06-.55-.07-1.11-.18-1.68-.36l-.07-.07c-1.15,1.34-5.66,5.6-6.98,6.69l.05.07s.34.28.95.69c1.48.98,4.53,2.68,8.15,2.78,1.01.03,2.07-.06,3.15-.33,6.52-1.64,14.9-10.04,15.85-10.8.91-.73,2.02-1.13,2.98-1.77Z"/>
            <path class="cls-28" d="m76.27,52.99c-.79.5-2.64,2.95-3.03,3.48-.21-4.37-.44-7.94-.64-9.7-.49-4.29-2.03-6.29-3.15-7.2-.3-.25-.56-.41-.77-.51.88.18,3.2.81,3.76,2.21.69,1.72,3.71,11.59,3.71,11.59l.12.13Z"/>
            <path class="cls-10" d="m71.43,30.74h-3.3v-.03s0-1.05.24-2.54c.23-1.48,1.85-1.83,1.85-1.83,1.69.7,2.05,2.64,2.05,3.32,0,0,3.23-.19,3.23.49,0,.59-2.07.6-3.47.59h-.6Z"/>
            <path class="cls-29" d="m65.67,71.87l.08,16.92c-3.06.21-6.03.41-8.02.51-.8-8.6,1.56-12.43,2-17.43h5.94Z"/>
            <path class="cls-15" d="m59.79,70.31c.05-5.66-1.41-14.24-1.49-14.76h.06c.81,2.89,2.36,5.4,3.84,7.09l.05.06c-.42.42-.69.73-.71.82-.13.52,1.22,1.46,1.22,1.46,0,0,1.14.98,1.53.88.04,0,.16-.1.35-.26l.05.07s.34.28.95.69l.02,3.95h-5.87Z"/>
            <path class="cls-13" d="m62.76,64.98s-1.35-.94-1.22-1.46c.02-.09.29-.4.71-.82,1.65-1.68,5.69-5.32,7.03-6.29.21-.16.35-.25.41-.25.47-.02,2.49,1.73,2.19,2.4-.02.06-.12.18-.26.35-1.15,1.34-5.66,5.6-6.98,6.69-.19.16-.31.25-.35.26-.39.1-1.53-.88-1.53-.88Z"/>
            <path class="cls-16" d="m62.62,36.58c-.1-1.98-.1-4.69-.09-5.84h5.02c.02.5.09,3.29-.57,3.43-.72.14-.48-2.32-1.42-1.79-.95.54-.74,1.73-.43,2.18,0,0-.52,2-.95,2.01-.45,0-1.56,0-1.56,0Z"/>
            <path class="cls-44" d="m65.68,41.52c-.78-1.65-3.75-2.3-4.27-2.4.6-.39,1.11-.67,1.37-.8.04.25.09.43.14.51.48.76,5.28.9,5.28.9,0,0-.03-.42-.01-.87h.04s.17.05.44.19h.01c.21.11.47.27.77.52,1.11,1.39,2.47,6.8,2.35,6.92-.12.11-3.81.73-4.05.66-.23-.07-1.22-3.81-2.07-5.63Z"/>
            <path class="cls-18" d="m62.62,36.58s1.11,0,1.56,0c.43-.01.95-2.01.95-2.01-.31-.45-.52-1.64.43-2.18.94-.53.7,1.93,1.42,1.79.66-.14.59-2.93.57-3.43h4.48c-.04.87-.28,5.54-1.22,6.4-1.03.93-2.26.41-2.48.78-.1.17-.13.56-.14.94-.02.45.01.87.01.87,0,0-3.58.15-5.58-.9-.06-.42.04-1.54,0-2.25Z"/>
            <path class="cls-6" d="m67.55,30.74h-5.02c0-.34.01-.54.02-.55.05-.06-.22-1.29.76-2.18.96-.89,4.13-2.34,6.33-1.86.21.04.4.1.58.19,0,0-1.62.35-1.85,1.83-.24,1.49-.24,2.54-.24,2.54v.03h-.58Z"/>
            <path class="cls-41" d="m59.57,40.5c.3-.11.65-.18,1.03-.18,5.04,0,5.32,4.76,5.88,8.76.57,4,2.78,7.3,2.78,7.3l.02.03c-1.34.97-5.38,4.61-7.03,6.29l-.05-.06c-1.48-1.69-3.03-4.2-3.84-7.1-.09-.35-.18-.69-.26-1.05-.65-3.08-2.27-12.56,1.47-13.99Z"/>
            <path class="cls-32" d="m73.79,69.14c-3.62-.1-6.67-1.8-8.15-2.78l.02,3.95v1.56s.09,16.92.09,16.92c3.14-.22,6.38-.47,8.71-.65-.09-2.74-.34-10.69-.67-19Zm-4.53-12.76l.02.03c.21-.16.35-.25.41-.25.47-.02,2.49,1.73,2.19,2.4-.02.06-.12.18-.26.35l.07.07c.57.18,1.13.29,1.68.36-.04-.99-.09-1.94-.13-2.87-.21-4.37-.44-7.94-.64-9.7-.49-4.29-2.03-6.29-3.15-7.2,1.11,1.39,2.47,6.8,2.35,6.92-.12.11-3.81.73-4.05.66-.23-.07-1.22-3.81-2.07-5.63-.78-1.65-3.75-2.3-4.27-2.4-.6.37-1.27.84-1.85,1.37h.01c.3-.1.65-.17,1.03-.17,5.04,0,5.32,4.76,5.88,8.76.57,4,2.78,7.3,2.78,7.3Z"/>
            <g>
              <g>
                <rect class="cls-51" x="46.37" y="56.7" width="20.78" height="15.42" rx=".92" ry=".92"/>
                <rect class="cls-51" x="47.23" y="56.7" width="20.78" height="15.42" rx=".92" ry=".92"/>
                <rect class="cls-16" x="56.11" y="72.12" width="3.39" height="3.26"/>
                <rect class="cls-16" x="48.04" y="74.55" width="17.05" height=".84"/>
                <rect class="cls-21" x="48.04" y="74.55" width="4.35" height=".84"/>
              </g>
              <polygon class="cls-3" points="109.56 77.62 109.22 84.78 109.22 84.78 109.08 87.64 106.43 143.07 23.77 143.36 20.94 87.92 20.79 85.07 20.79 85.06 20.43 77.91 44.69 77.83 45.92 77.83 109.56 77.62"/>
              <polygon class="cls-51" points="44.79 143.25 23.77 143.36 20.94 87.92 20.79 85.07 20.79 85.06 20.43 77.91 44.69 77.8 44.69 77.83 44.7 84.96 44.7 84.99 44.7 87.85 44.79 143.25"/>
              <path class="cls-19" d="m112.17,82.3c0,1.37-.86,2.47-1.93,2.48h-1.02s-43.95.14-43.95.14l-20.57.07-23.91.07h-.35s-.67,0-.67,0c-.2,0-.4-.04-.58-.11-.12-.05-.24-.11-.35-.19-.11-.07-.21-.16-.31-.26-.05-.05-.1-.1-.14-.16-.35-.44-.57-1.06-.57-1.73v-4.74c-.02-1.36.85-2.47,1.92-2.47l26.16-.08,28.68-.09,6.76-.02h2.66s4.31-.02,4.31-.02l21.9-.07c1.07,0,1.94,1.1,1.94,2.46v4.74Z"/>
              <path class="cls-30" d="m45.92,77.06c0-.98-.8-1.78-1.78-1.77l-24.38.1c-1.07,0-1.93,1.11-1.93,2.47v4.74c.01,1.36.88,2.46,1.95,2.46l24.39-.1c.98,0,1.77-.8,1.77-1.78v-6.13Z"/>
              <polygon class="cls-7" points="109.58 84.78 109.22 84.78 109.08 87.64 44.7 87.85 20.94 87.92 20.79 85.07 44.7 84.99 65.27 84.92 109.22 84.78 109.58 84.78"/>
              <g>
                <rect class="cls-51" x="86.69" y="98.37" width="14.64" height="1.91"/>
                <rect class="cls-51" x="86.69" y="105.19" width="14.64" height="1.91"/>
                <rect class="cls-51" x="86.69" y="112.01" width="14.64" height="1.91"/>
                <rect class="cls-51" x="86.69" y="118.82" width="14.64" height="1.91"/>
                <rect class="cls-51" x="86.69" y="125.64" width="14.64" height="1.91"/>
              </g>
              <rect class="cls-51" x="77.01" y="84.88" width=".48" height="58.48"/>
            </g>
            <path class="cls-5" d="m65.13,34.56c.29.5.74.72,1.42.68,0,0,.04.96-.71.92s-.71-1.6-.71-1.6Z"/>
            <path class="cls-5" d="m66.19,33.45c-.1-.21-.17-.49-.47-.47-.35.03-.43.5-.4.77.02.18.04.45.21.57.11.08.36.12.5.1.1-.02.23-.11.23-.22,0-.11-.09-.18-.15-.26-.12-.15-.13-.36.09-.48Z"/>
          </g>
          <path class="cls-11" d="m168.59,149.23H4.8c-2.03,0-3.69-1.66-3.69-3.69h0c0-2.03,1.66-3.69,3.69-3.69h163.78c2.03,0,3.69,1.66,3.69,3.69h0c0,2.03-1.66,3.69-3.69,3.69Z"/>
        </g>
      </g>
    </g>
  </g>
</svg>